<?xml version="1.0" encoding="UTF-8"?>
<svg version="1.1" xmlns="http://www.w3.org/2000/svg" width="512" height="512">
<path d="M0 0 C168.96 0 337.92 0 512 0 C512 168.96 512 337.92 512 512 C343.04 512 174.08 512 0 512 C0 343.04 0 174.08 0 0 Z " fill="#654D4D" transform="translate(0,0)"/>
<path d="M0 0 C47.19 0 94.38 0 143 0 C141.68 3.3 140.36 6.6 139 10 C137.02530863 15.15687982 136.24751762 20.24540746 135.5 25.6875 C135.26225245 27.37916527 135.02265701 29.07057182 134.78125 30.76171875 C134.65903076 31.6326416 134.53681152 32.50356445 134.41088867 33.40087891 C134.15070713 35.0466856 133.84847066 36.68684605 133.48950195 38.31396484 C131.48450706 47.50145634 131.54987122 56.81848652 131.2805481 66.17990112 C129.88839593 112.11361716 129.88839593 112.11361716 116.328125 131.3515625 C114.7723921 134.45387692 114.94689668 135.75878201 116 139 C116.99 139.33 117.98 139.66 119 140 C118.39625259 147.41746817 116.97925395 154.03211368 113.8125 160.75 C112.98685547 162.50570312 112.98685547 162.50570312 112.14453125 164.296875 C110 167 110 167 106.38671875 167.640625 C105.26910156 167.75921875 104.15148437 167.8778125 103 168 C101.6999729 169.85525899 101.6999729 169.85525899 101 172 C99.4140625 173.38671875 99.4140625 173.38671875 97.625 174.6875 C92.84549834 178.7485797 90.50162829 182.72796971 89.76074219 189.03759766 C88.78260007 200.84806269 88.78260007 200.84806269 93.3515625 211.35546875 C94.58146393 212.58245572 95.85478823 213.76620109 97.1484375 214.92578125 C102.94697194 220.16480798 102.94697194 220.16480798 103.25 224.9375 C102.8747984 226.63470097 102.44961266 228.32097772 102 230 C101.731875 231.28519531 101.46375 232.57039062 101.1875 233.89453125 C99.55866657 241.618269 97.47905591 248.90610359 94.48046875 256.22265625 C92.44986746 261.25464734 90.79937458 266.42387106 89.0625 271.5625 C86.94819389 277.80184422 84.82418013 283.73521819 81.625 289.5 C78.65917528 294.9784269 78.16986669 300.13261019 77.55078125 306.2734375 C76.83186136 311.13761887 75.16403831 315.26597928 73.28515625 319.78515625 C71.31132587 324.72273195 69.97478569 329.80372057 68.57861328 334.92871094 C67.93165859 337.24464495 67.24740773 339.54773775 66.55859375 341.8515625 C63.92404634 350.73451291 61.63047936 359.5003544 60 368.625 C58.58173408 376.35849304 56.330399 382.36574341 52 389 C47.85528303 395.73762048 45.31827554 401.35523269 44.421875 409.2734375 C43.982423 412.11359948 43.07183197 414.3428348 42 417 C41.58383257 419.12111143 41.18915553 421.24651706 40.8125 423.375 C39.13091953 430.84121727 36.0227966 433.96856468 30.08203125 438.4453125 C22.59534658 444.39281848 16.93003175 452.7992597 14.08203125 461.94921875 C13.78404088 464.76933051 13.87863082 466.39460608 15 469 C17.87220547 472.18253572 21.23641592 474.0059292 25 476 C25.65323242 476.34869141 26.30646484 476.69738281 26.97949219 477.05664062 C35.95243555 481.8072671 42.92631209 485.18105825 53.25 485.0625 C54.36761719 485.05573242 54.36761719 485.05573242 55.5078125 485.04882812 C57.3385764 485.03709246 59.16929873 485.0191585 61 485 C61.33 484.01 61.66 483.02 62 482 C71.08975599 477.45512201 88.82350633 481.10604119 98.6875 481.8125 C100.32634155 481.91751831 100.32634155 481.91751831 101.99829102 482.0246582 C103.52087524 482.14587036 103.52087524 482.14587036 105.07421875 482.26953125 C105.97744873 482.33760986 106.88067871 482.40568848 107.8112793 482.47583008 C110 483 110 483 112 486 C114.13713301 486.40171173 114.13713301 486.40171173 116.5 486.25 C117.2940625 486.23453125 118.088125 486.2190625 118.90625 486.203125 C121.05735328 486.12080522 121.05735328 486.12080522 123 485 C124.58352982 484.88637817 126.17159547 484.83330781 127.7590332 484.81054688 C128.75220047 484.79382935 129.74536774 484.77711182 130.76863098 484.7598877 C132.39329536 484.73952454 132.39329536 484.73952454 134.05078125 484.71875 C135.17453659 484.70034058 136.29829193 484.68193115 137.45610046 484.66296387 C141.0748457 484.60409225 144.69364291 484.55150199 148.3125 484.5 C168.21436899 484.21636725 168.21436899 484.21636725 188.10546875 483.53125 C188.98358719 483.49390747 189.86170563 483.45656494 190.76643372 483.41809082 C195.01954869 483.30903675 195.01954869 483.30903675 199 482 C206.0954392 480.89016241 213.27206005 480.81735135 220.4375 480.8125 C221.41654297 480.80025391 222.39558594 480.78800781 223.40429688 480.77539062 C224.81098633 480.77249023 224.81098633 480.77249023 226.24609375 480.76953125 C227.08841553 480.76542236 227.9307373 480.76131348 228.79858398 480.75708008 C231 481 231 481 234 483 C233.814375 484.051875 233.62875 485.10375 233.4375 486.1875 C232.76683586 491.29557209 233.32804441 496.23553045 233.84375 501.33984375 C233.8953125 502.21769531 233.946875 503.09554688 234 504 C231.44740706 506.55259294 225.77161581 506.00398924 222.421875 506.0625 C218.94735579 506.0625 215.47423033 506.04336765 212 506 C211.52949219 505.03578125 211.05898437 504.0715625 210.57421875 503.078125 C209.94552821 501.80197704 209.31660993 500.52594126 208.6875 499.25 C208.37876953 498.61578125 208.07003906 497.9815625 207.75195312 497.328125 C205.33188082 492.35941355 205.33188082 492.35941355 202 488 C198.87413125 487.66602213 198.87413125 487.66602213 196 488 C195.57869093 490.24598049 195.57869093 490.24598049 196 493 C197.177294 494.43891488 198.36318772 495.87318436 199.62109375 497.2421875 C202.14012385 500.45341568 203.47333663 504.24701263 205 508 C191.93844216 510.6064346 178.88011602 510.2263739 165.625 510.125 C163.32812891 510.11494876 161.03125355 510.10582671 158.734375 510.09765625 C153.15615562 510.07581595 147.57809819 510.04250879 142 510 C139.89344481 505.24973043 138.5105743 501.27120825 137.8125 496.0625 C137.65394531 494.91910156 137.49539062 493.77570313 137.33203125 492.59765625 C137.22246094 491.74042969 137.11289063 490.88320313 137 490 C135.02 490 133.04 490 131 490 C131.11701687 491.79220576 131.24415308 493.58375085 131.375 495.375 C131.47941406 496.87160156 131.47941406 496.87160156 131.5859375 498.3984375 C132.11186502 502.97301462 133.09694204 507.48471021 134 512 C89.78 512 45.56 512 0 512 C0 343.04 0 174.08 0 0 Z " fill="#FEFEFE" transform="translate(0,0)"/>
<path d="M0 0 C115.5 0 231 0 350 0 C350.103125 43.4775 350.20625 86.955 350.3125 131.75 C350.38078003 152.36936035 350.38078003 152.36936035 350.45043945 173.40527344 C350.47302246 190.14501953 350.47302246 190.14501953 350.47721863 197.97271729 C350.48189145 203.45931758 350.50027454 208.94567246 350.52787781 214.43218994 C350.55964486 220.75563248 350.5741939 227.07883138 350.56722475 233.40235437 C350.56420491 236.63911069 350.57184658 239.87520976 350.59607565 243.11189222 C350.62079622 246.57388558 350.61500718 250.03449867 350.60127258 253.496521 C350.61583591 254.51178989 350.63039923 255.52705879 350.64540386 256.57309341 C350.57215245 263.40104168 350.57215245 263.40104168 347.46242046 266.65646744 C346.64982171 267.09983318 345.83722296 267.54319893 345 268 C345.55519458 264.02110554 346.51501038 260.71247405 348 257 C348.37593066 255.0075675 348.71979545 253.0081326 349 251 C346.58414426 251.03093173 346.58414426 251.03093173 344 252 C342.14083176 254.96707046 342.14083176 254.96707046 341 258 C338.64900641 254.47350961 339.07251925 253.0537596 339.70703125 249.0078125 C340.05018746 246.65604859 340.07415438 244.37294006 340 242 C339.34 242 338.68 242 338 242 C337.67 240.68 337.34 239.36 337 238 C331.60600878 238.37632497 329.53048381 239.99242379 326 244 C325 245 324 246 323 247 C322.34 246.01 321.68 245.02 321 244 C321.66 243.34 322.32 242.68 323 242 C322.61121812 238.98694043 321.73543126 237.60314689 320 235 C318.05114904 235.20490366 318.05114904 235.20490366 316 236 C314.7977622 237.7451852 314.7977622 237.7451852 314 239.875 C312.49742941 243.20212059 311.26131652 245.13639056 308 247 C308.56979842 243.08784744 309.72962173 240.49095559 311.875 237.1875 C315.38569323 231.51638017 318.64768853 225.90867762 318 219 C315.58263164 219.10691236 315.58263164 219.10691236 313 220 C311.31742177 222.27789958 311.31742177 222.27789958 310.1875 225.0625 C309.76855469 225.98160156 309.34960938 226.90070313 308.91796875 227.84765625 C308.46357422 228.91306641 308.46357422 228.91306641 308 230 C307.34 228.68 306.68 227.36 306 226 C305.34 226 304.68 226 304 226 C303.67 224.68 303.34 223.36 303 222 C301.02 222.33 299.04 222.66 297 223 C297 218.71 297 214.42 297 210 C296.34 210 295.68 210 295 210 C295.66 208.02 296.32 206.04 297 204 C296.01 203.67 295.02 203.34 294 203 C293.87625 202.360625 293.7525 201.72125 293.625 201.0625 C293.19043158 198.78887566 293.19043158 198.78887566 290.875 197.75 C287.49543152 196.86837344 284.47843626 196.86359073 281 197 C281 196.01 281 195.02 281 194 C277.10209457 193.63740415 275.47888346 193.65172112 272.25 196 C271.13625 196.99 271.13625 196.99 270 198 C269.34 198 268.68 198 268 198 C268 197.34 268 196.68 268 196 C269.485 195.01 269.485 195.01 271 194 C271.72382467 191.94074861 271.72382467 191.94074861 272 190 C271.071875 190 270.14375 190 269.1875 190 C267.125 190 265.0625 190 263 190 C266.74193548 184.32258065 266.74193548 184.32258065 268.75 181.8125 C270.28386648 179.95535017 270.28386648 179.95535017 270 177 C267.75775342 176.41036322 267.75775342 176.41036322 265 177 C260.21850751 181.56898171 256.9728894 187.06955347 253.62768555 192.73120117 C252.77543301 194.16841937 251.89073249 195.58630762 251 197 C250.67 197 250.34 197 250 197 C249.42487302 189.81091275 251.76544315 186.66905402 256.25 181.3125 C258.30172134 179.08463463 258.30172134 179.08463463 258 176 C255.69 176.33 253.38 176.66 251 177 C251 177.66 251 178.32 251 179 C249.25 180.5078125 249.25 180.5078125 247 182.125 C246.2575 182.66382813 245.515 183.20265625 244.75 183.7578125 C244.1725 184.16773438 243.595 184.57765625 243 185 C242.67 184.01 242.34 183.02 242 182 C241.34 181.34 240.68 180.68 240 180 C244.75 176 244.75 176 247 176 C247 174.35 247 172.7 247 171 C242.35413108 171.48484276 242.35413108 171.48484276 238 173 C238.33 172.443125 238.66 171.88625 239 171.3125 C240.1309601 168.69715478 240.15662974 166.8193354 240 164 C236.22454612 165.09068668 233.52956528 165.9083091 231 169 C229.83328072 164.72202932 230.28941153 161.34248508 231 157 C231 155.68 231 154.36 231 153 C227.7 153 224.4 153 221 153 C220.67 151.35 220.34 149.7 220 148 C218.56163249 148.11458693 217.12429034 148.24209116 215.6875 148.375 C214.48673828 148.47941406 214.48673828 148.47941406 213.26171875 148.5859375 C210.72775559 148.89564426 210.72775559 148.89564426 208 151 C206.33333333 150.66666667 204.66666667 150.33333333 203 150 C202.01 150.66 201.02 151.32 200 152 C198.94321327 146.01377139 199.17603844 141.73759724 200.875 135.9375 C201.25087677 134.59341651 201.62330725 133.24836423 201.9921875 131.90234375 C202.24524658 131.02823853 202.24524658 131.02823853 202.50341797 130.13647461 C203.93114225 123.99389094 204.17018474 117.95290836 204.203125 111.68359375 C204.21004868 110.79754456 204.21697235 109.91149536 204.22410583 108.99859619 C204.24134688 106.14485236 204.24769515 103.2912935 204.25 100.4375 C204.25133942 99.47035065 204.25267883 98.50320129 204.25405884 97.50674438 C204.86861805 73.02571079 204.86861805 73.02571079 198 50 C197.3464672 47.86868282 196.74431339 45.72110532 196.1875 43.5625 C192.49944904 30.28271194 187.29381542 11.98934771 175.1875 4.1875 C170.56452608 2.4652156 166.98554162 2.3073692 162.3125 3.9375 C156.38126744 9.22751823 155.43669007 16.94971097 154.4921875 24.49609375 C154.09807522 27.30179785 153.60342513 30.01487857 153.02734375 32.78515625 C152.16639662 36.98760505 151.54493215 41.17627607 151.01171875 45.43115234 C149.92366681 54.05199757 148.3215894 62.24913276 145.84545898 70.57617188 C144.02523395 76.7141561 142.73472115 82.86221513 141.578125 89.15625 C141 92 141 92 140 94 C139.78217533 95.44512437 139.61026332 96.89736678 139.46484375 98.3515625 C139.33432617 99.62773437 139.33432617 99.62773437 139.20117188 100.9296875 C139.0706543 102.26386719 139.0706543 102.26386719 138.9375 103.625 C138.84662109 104.5221875 138.75574219 105.419375 138.66210938 106.34375 C138.43790708 108.56217272 138.21735434 110.7808976 138 113 C135.33333333 113 132.66666667 113 130 113 C129.67 109.04 129.34 105.08 129 101 C128.113125 101.350625 127.22625 101.70125 126.3125 102.0625 C122.93796874 103.01755602 121.30313848 102.97151132 118 102 C117.67 100.35 117.34 98.7 117 97 C115.02 97.33 113.04 97.66 111 98 C111.33 95.03 111.66 92.06 112 89 C110.02 89.33 108.04 89.66 106 90 C105.67 88.68 105.34 87.36 105 86 C103.68 86 102.36 86 101 86 C100.76925781 86.55429688 100.53851563 87.10859375 100.30078125 87.6796875 C97.60377358 93.67066895 97.60377358 93.67066895 94.25 95.5 C93.5075 95.665 92.765 95.83 92 96 C91.67 95.34 91.34 94.68 91 94 C89.68 94 88.36 94 87 94 C84.60457417 98.58154261 82.49170266 103.0276578 81 108 C80.195625 107.814375 79.39125 107.62875 78.5625 107.4375 C77.716875 107.293125 76.87125 107.14875 76 107 C74.47073432 108.52926568 74.8703765 109.91522179 74.8671875 112.04296875 C74.86589844 112.86990234 74.86460937 113.69683594 74.86328125 114.54882812 C74.86714844 115.41958984 74.87101562 116.29035156 74.875 117.1875 C74.87113281 118.03892578 74.86726563 118.89035156 74.86328125 119.76757812 C74.87027933 124.29183604 75.08194024 128.54813878 76 133 C69.24088421 134.3134582 62.72432831 133.94182399 55.875 133.6875 C54.60011719 133.65205078 53.32523438 133.61660156 52.01171875 133.58007812 C50.78839844 133.53689453 49.56507813 133.49371094 48.3046875 133.44921875 C47.19077637 133.41143311 46.07686523 133.37364746 44.92919922 133.3347168 C42.1189828 133.01359605 40.3969191 132.4506134 38 131 C38.268125 130.0925 38.53625 129.185 38.8125 128.25 C39.33773287 124.51418876 38.42395262 122.21440529 36.875 118.8125 C33.97947985 112.45039877 32.35623497 106.00623945 30.78857422 99.20629883 C29.87291154 95.28783534 28.89288741 91.57756035 27.37109375 87.84765625 C25.88866977 84.07190166 25.70040774 80.76204397 25.6875 76.6875 C25.40886534 67.64316947 22.64994706 59.74019051 19.74023438 51.24707031 C18.65952765 47.96645531 17.79685847 44.6583629 16.9375 41.3125 C13.00993785 26.23783198 8.74371396 13.11557094 0 0 Z " fill="#FEFEFE" transform="translate(162,0)"/>
<path d="M0 0 C5.46453777 3.04614535 8.0234928 6.77040001 10.94921875 12.15625 C11.33609863 12.81963379 11.72297852 13.48301758 12.12158203 14.16650391 C15.40847472 19.84531043 17.86480202 25.63423164 20.13671875 31.78125 C20.47896484 32.68359375 20.82121094 33.5859375 21.17382812 34.515625 C22.60607977 38.33125462 23.98664078 42.12209205 25.0625 46.0546875 C25.79346368 49.02894127 25.79346368 49.02894127 26.97265625 51.05859375 C33.13712365 64.29986973 31.24934214 82.95833274 31.26171875 97.21875 C31.26512268 98.15308868 31.26852661 99.08742737 31.27203369 100.05007935 C31.29793676 112.49650549 31.21399175 124.59136072 27.26171875 136.53125 C25.84631777 140.86237698 25.89394679 143.74329455 26.94921875 148.15625 C27.60921875 147.49625 28.26921875 146.83625 28.94921875 146.15625 C30.94921875 146.48958333 32.94921875 146.82291667 34.94921875 147.15625 C35.60921875 146.49625 36.26921875 145.83625 36.94921875 145.15625 C39.078125 144.70703125 39.078125 144.70703125 41.51171875 144.46875 C42.31738281 144.38238281 43.12304688 144.29601562 43.953125 144.20703125 C44.61183594 144.19027344 45.27054688 144.17351562 45.94921875 144.15625 C46.94921875 145.15625 46.94921875 145.15625 46.94921875 150.15625 C50.24921875 149.82625 53.54921875 149.49625 56.94921875 149.15625 C57.86186152 152.40120209 57.92928468 154.98763314 57.44921875 158.28125 C56.67584837 162.06119214 56.67584837 162.06119214 57.94921875 165.15625 C58.53703125 164.16625 58.53703125 164.16625 59.13671875 163.15625 C60.94921875 161.15625 60.94921875 161.15625 63.63671875 160.90625 C64.39984375 160.98875 65.16296875 161.07125 65.94921875 161.15625 C67.07421875 165.90625 67.07421875 165.90625 65.94921875 168.15625 C68.25921875 167.82625 70.56921875 167.49625 72.94921875 167.15625 C73.69921875 168.90625 73.69921875 168.90625 73.94921875 171.15625 C71.83273738 173.7262631 69.72767458 175.30394611 66.94921875 177.15625 C67.93921875 178.47625 68.92921875 179.79625 69.94921875 181.15625 C70.73296875 180.33125 71.51671875 179.50625 72.32421875 178.65625 C74.94921875 176.15625 74.94921875 176.15625 76.94921875 176.15625 C76.94921875 175.49625 76.94921875 174.83625 76.94921875 174.15625 C79.94921875 172.15625 79.94921875 172.15625 82.63671875 172.53125 C83.39984375 172.7375 84.16296875 172.94375 84.94921875 173.15625 C84.67404107 177.83427059 82.61727989 179.90263753 79.421875 183.01953125 C77.94921875 184.15625 77.94921875 184.15625 75.94921875 184.15625 C73.84644362 187.92553986 73.27235983 191.49624467 72.609375 195.71875 C71.87417807 198.43332327 70.7567928 200.0285334 68.94921875 202.15625 C70.26921875 202.48625 71.58921875 202.81625 72.94921875 203.15625 C73.57421875 205.03125 73.57421875 205.03125 73.94921875 207.15625 C73.28921875 207.81625 72.62921875 208.47625 71.94921875 209.15625 C61.24303758 208.33852188 49.99032794 201.01112314 43.0859375 192.9921875 C41.91510904 191.48127361 40.76374978 189.95506249 39.6328125 188.4140625 C37.98079401 186.19859455 36.23032616 184.15116746 34.38671875 182.09375 C25.13518777 171.62109972 18.80190279 162.34005262 18.63671875 148.15625 C18.60771484 147.38796875 18.57871094 146.6196875 18.54882812 145.828125 C18.48479625 139.56285196 19.60129 133.84954246 20.9453125 127.76953125 C23.03438807 118.09699257 23.5034777 108.82692335 23.36083984 98.9543457 C23.32397807 96.32659306 23.31982534 93.70025236 23.3203125 91.07226562 C23.26444814 77.14868576 22.15978683 63.80064176 18.07421875 50.40625 C17.80665771 49.50575928 17.53909668 48.60526855 17.26342773 47.67749023 C11.54555242 27.79764204 11.54555242 27.79764204 -0.05078125 11.15625 C-0.05078125 10.49625 -0.05078125 9.83625 -0.05078125 9.15625 C-2.44507713 7.64873037 -3.81465616 7.15062797 -6.67578125 7.21875 C-9.19732621 7.91481349 -9.19732621 7.91481349 -10.078125 10.12109375 C-11.39973083 14.24514084 -12.20143832 18.40159983 -12.98828125 22.65625 C-13.16230469 23.57897705 -13.33632813 24.5017041 -13.515625 25.45239258 C-14.7043497 31.89587047 -15.67599472 38.35111821 -16.55078125 44.84375 C-17.85109298 54.42466708 -19.76336485 63.76602586 -22.05078125 73.15625 C-22.23318359 73.90938477 -22.41558594 74.66251953 -22.60351562 75.43847656 C-25.64349452 87.93438981 -25.64349452 87.93438981 -27.05078125 92.15625 C-27.15429293 94.05108873 -27.23415411 95.94725605 -27.30078125 97.84375 C-28.04712166 108.29251574 -31.32060517 122.8513252 -38.05078125 131.15625 C-41.86328125 132.28125 -41.86328125 132.28125 -45.05078125 132.15625 C-43.56578125 133.14625 -43.56578125 133.14625 -42.05078125 134.15625 C-42.36328125 136.03125 -42.36328125 136.03125 -43.05078125 138.15625 C-47.00379092 140.79158978 -50.41789476 140.46113851 -55.0078125 140.45703125 C-56.37964439 140.46529434 -56.37964439 140.46529434 -57.77919006 140.47372437 C-60.80737092 140.48555475 -63.83509854 140.47901052 -66.86328125 140.46875 C-67.90011047 140.46759186 -68.9369397 140.46643372 -70.00518799 140.46524048 C-86.01198432 140.43011565 -101.95314425 139.87699221 -117.92578125 138.84375 C-118.87039215 138.78498688 -119.81500305 138.72622375 -120.78823853 138.66567993 C-131.46705399 137.98462439 -141.88749957 136.8784929 -152.39111328 134.81420898 C-156.89545487 134.00438907 -161.36122418 133.62766494 -165.92578125 133.3671875 C-168.05078125 133.15625 -168.05078125 133.15625 -169.05078125 132.15625 C-169.17578125 129.65625 -169.17578125 129.65625 -169.05078125 127.15625 C-166.84313912 124.94860787 -161.39761269 125.90859238 -158.34350586 125.89868164 C-152.95367449 125.95919254 -147.89882294 126.58966948 -142.61328125 127.59375 C-127.99933116 130.32817889 -112.87064463 129.92398788 -98.05078125 130.15625 C-98.53756348 128.81578613 -98.53756348 128.81578613 -99.03417969 127.44824219 C-99.92584818 124.56081234 -100.30746086 122.4657461 -100.31640625 119.484375 C-100.32027344 118.24107422 -100.32027344 118.24107422 -100.32421875 116.97265625 C-100.31648438 116.12574219 -100.30875 115.27882813 -100.30078125 114.40625 C-100.31238281 113.11267578 -100.31238281 113.11267578 -100.32421875 111.79296875 C-100.32164062 110.96925781 -100.3190625 110.14554687 -100.31640625 109.296875 C-100.31415039 108.54954102 -100.31189453 107.80220703 -100.30957031 107.03222656 C-100.05078125 105.15625 -100.05078125 105.15625 -98.05078125 103.15625 C-95.92578125 103.53125 -95.92578125 103.53125 -94.05078125 104.15625 C-93.79683594 103.48078125 -93.54289062 102.8053125 -93.28125 102.109375 C-92.76498047 100.77132812 -92.76498047 100.77132812 -92.23828125 99.40625 C-91.90183594 98.52453125 -91.56539063 97.6428125 -91.21875 96.734375 C-90.08231303 94.22585192 -88.78535198 92.28345995 -87.05078125 90.15625 C-86.26703125 90.32125 -85.48328125 90.48625 -84.67578125 90.65625 C-82.16870086 91.2186207 -82.16870086 91.2186207 -80.05078125 91.15625 C-79.06078125 91.15625 -78.07078125 91.15625 -77.05078125 91.15625 C-76.76203125 90.228125 -76.47328125 89.3 -76.17578125 88.34375 C-75.05078125 85.15625 -75.05078125 85.15625 -73.05078125 82.15625 C-71.40078125 82.48625 -69.75078125 82.81625 -68.05078125 83.15625 C-67.72078125 84.14625 -67.39078125 85.13625 -67.05078125 86.15625 C-65.40078125 85.82625 -63.75078125 85.49625 -62.05078125 85.15625 C-61.45345306 87.91889289 -61.05078125 90.31657769 -61.05078125 93.15625 C-59.40078125 93.48625 -57.75078125 93.81625 -56.05078125 94.15625 C-56.05078125 95.80625 -56.05078125 97.45625 -56.05078125 99.15625 C-52.21852698 99.24537219 -48.78515973 99.03492729 -45.05078125 98.15625 C-43.78840394 100.68100462 -43.95221721 102.46825466 -43.98828125 105.28125 C-43.99730469 106.19132812 -44.00632812 107.10140625 -44.015625 108.0390625 C-44.02722656 108.73773438 -44.03882813 109.43640625 -44.05078125 110.15625 C-43.45265625 109.970625 -42.85453125 109.785 -42.23828125 109.59375 C-40.05078125 109.15625 -40.05078125 109.15625 -37.05078125 110.15625 C-36.94121094 108.92390625 -36.83164062 107.6915625 -36.71875 106.421875 C-35.9583592 98.30829967 -35.16443314 90.40375476 -32.97265625 82.53125 C-31.43656441 76.90759172 -30.16948446 71.21787649 -28.85229492 65.53955078 C-27.22598076 58.62948262 -27.22598076 58.62948262 -25.9921875 55.296875 C-24.4744139 50.23343111 -24.10699464 45.02554772 -23.55078125 39.78125 C-22.79805388 32.73373659 -21.93248079 25.99462152 -20.05078125 19.15625 C-19.75200954 17.65764902 -19.45878609 16.15790832 -19.17578125 14.65625 C-17.92327996 9.04426749 -16.16513954 3.98488419 -11.73828125 0.15625 C-7.55372435 -1.40079443 -4.2119656 -1.73292299 0 0 Z " fill="#050404" transform="translate(336.05078125,2.84375)"/>
<path d="M0 0 C0.928125 0.20625 1.85625 0.4125 2.8125 0.625 C2.8125 1.615 2.8125 2.605 2.8125 3.625 C3.84375 3.398125 4.875 3.17125 5.9375 2.9375 C10.34752908 2.58185249 12.20200316 3.1320379 15.8125 5.625 C16.5625 7.75 16.5625 7.75 16.8125 9.625 C17.4725 9.955 18.1325 10.285 18.8125 10.625 C18.30646008 12.79374252 17.81266187 14.62467627 16.8125 16.625 C17.4725 16.625 18.1325 16.625 18.8125 16.625 C18.87308594 17.33527344 18.93367188 18.04554688 18.99609375 18.77734375 C19.07988281 19.69644531 19.16367187 20.61554688 19.25 21.5625 C19.33121094 22.47902344 19.41242188 23.39554688 19.49609375 24.33984375 C19.57294976 26.58659732 19.57294976 26.58659732 20.8125 27.625 C22.47264616 27.98942233 24.13956064 28.32472883 25.8125 28.625 C25.8125 29.945 25.8125 31.265 25.8125 32.625 C26.4725 32.625 27.1325 32.625 27.8125 32.625 C28.4725 33.615 29.1325 34.605 29.8125 35.625 C30.11542969 34.91472656 30.41835938 34.20445312 30.73046875 33.47265625 C31.14941406 32.55355469 31.56835938 31.63445312 32 30.6875 C32.40605469 29.77097656 32.81210937 28.85445312 33.23046875 27.91015625 C34.8125 25.625 34.8125 25.625 37.42578125 24.74609375 C38.60720703 24.68615234 38.60720703 24.68615234 39.8125 24.625 C40.1425 24.955 40.4725 25.285 40.8125 25.625 C40.23167476 34.91820378 35.37566607 42.71426538 30.8125 50.625 C31.1425 50.955 31.4725 51.285 31.8125 51.625 C32.43125 50.573125 32.43125 50.573125 33.0625 49.5 C34.89865066 46.48346677 36.83813445 43.55250755 38.8125 40.625 C41.53178517 41.00007382 42.65468661 41.46718661 44.625 43.4375 C45.8125 45.625 45.8125 45.625 45.5 47.6875 C45.273125 48.326875 45.04625 48.96625 44.8125 49.625 C44.8125 50.615 44.8125 51.605 44.8125 52.625 C45.34875 51.8825 45.885 51.14 46.4375 50.375 C49.02985626 47.37332433 51.30906426 45.4839659 54.8125 43.625 C57.6875 43.875 57.6875 43.875 59.8125 44.625 C59.8125 45.945 59.8125 47.265 59.8125 48.625 C60.4725 48.625 61.1325 48.625 61.8125 48.625 C62.00908808 50.04043415 62.19437546 51.45744031 62.375 52.875 C62.53162109 54.05835938 62.53162109 54.05835938 62.69140625 55.265625 C62.81283688 57.6315637 62.40988472 59.35594209 61.8125 61.625 C62.1425 61.955 62.4725 62.285 62.8125 62.625 C63.204375 61.8 63.59625 60.975 64 60.125 C64.598125 59.3 65.19625 58.475 65.8125 57.625 C68.5 57.3125 68.5 57.3125 70.8125 57.625 C71.23839023 63.16157294 69.717747 67.52165983 67.8125 72.625 C69.1325 71.965 70.4525 71.305 71.8125 70.625 C71.8125 82.175 71.8125 93.725 71.8125 105.625 C65.45222742 102.44486371 59.91660443 98.27662678 54.19140625 94.0859375 C51.66848793 92.24229594 49.13183518 90.41881112 46.58984375 88.6015625 C37.73442662 82.26209479 29.01656917 75.80509337 20.53027344 68.97802734 C19.31480199 68.02064492 18.08168534 67.08546876 16.83691406 66.16650391 C10.46031769 61.40487172 4.85544665 55.97396241 -0.73583984 50.33740234 C-2.31000194 48.75251508 -3.8945836 47.17861586 -5.48046875 45.60546875 C-10.59850937 40.49263937 -15.45195565 35.35437632 -19.68310547 29.46044922 C-21.32128939 27.46176912 -23.06921466 26.09141742 -25.1875 24.625 C-24.68146008 22.45625748 -24.18766187 20.62532373 -23.1875 18.625 C-21.8675 18.625 -20.5475 18.625 -19.1875 18.625 C-19.1875 17.305 -19.1875 15.985 -19.1875 14.625 C-18.5275 14.625 -17.8675 14.625 -17.1875 14.625 C-16.94902344 13.88636719 -16.71054687 13.14773437 -16.46484375 12.38671875 C-14.99815556 9.21562227 -13.40079172 7.68784371 -10.75 5.4375 C-9.96753906 4.76332031 -9.18507813 4.08914062 -8.37890625 3.39453125 C-3.6441474 -0.42872322 -3.6441474 -0.42872322 0 0 Z " fill="#050404" transform="translate(440.1875,193.375)"/>
<path d="M0 0 C1.65 0.33 3.3 0.66 5 1 C6.29847223 4.61766861 6.02191417 5.94841394 4.48828125 9.55859375 C3.77755426 10.85960797 3.05174226 12.15247403 2.3125 13.4375 C1.95994141 14.08009766 1.60738281 14.72269531 1.24414062 15.38476562 C-0.98213907 19.39369706 -3.44181637 23.19272457 -6 27 C-7.01559401 28.99212671 -8.01789629 30.9911515 -9 33 C-9.66 33.99 -10.32 34.98 -11 36 C-11.74913241 42.57930415 -10.70562063 49.20248824 -9.625 55.6875 C-9.3480201 57.43865394 -9.07198687 59.18995786 -8.796875 60.94140625 C-8.66087891 61.79621582 -8.52488281 62.65102539 -8.38476562 63.53173828 C-7.47940288 69.33961729 -6.7341574 75.16829686 -6 81 C-5.86335937 82.00289063 -5.72671875 83.00578125 -5.5859375 84.0390625 C-5.47507812 84.93367188 -5.36421875 85.82828125 -5.25 86.75 C-5.15203125 87.50796875 -5.0540625 88.2659375 -4.953125 89.046875 C-5 91 -5 91 -7 94 C-9.86724686 93.42655063 -10.8614515 93.1385485 -13 91 C-15.90499417 83.61936889 -16.45183997 76.02390934 -16.7890625 68.1875 C-16.86643849 64.97919436 -16.86643849 64.97919436 -18 62 C-18.30294382 59.16831682 -18.50755058 56.33597165 -18.71875 53.49609375 C-18.8545027 51.00411573 -18.8545027 51.00411573 -20 49 C-20.70962891 50.34191406 -20.70962891 50.34191406 -21.43359375 51.7109375 C-25.29207989 58.82730569 -29.29617109 64.7381427 -34.8984375 70.6484375 C-40.49628296 76.91219767 -43.62350913 84.26725594 -46.72265625 91.98046875 C-48.78470072 96.8549653 -51.20207063 101.50808617 -54 106 C-54.31992479 106.65609001 -54.63984959 107.31218002 -54.96946907 107.98815155 C-56.42695107 110.51109202 -57.72126586 112.16484778 -60 114 C-64.81759219 115.18381152 -69.61450628 115.01266973 -74.54248047 114.90820312 C-76.03103005 114.90594496 -77.51958853 114.90721628 -79.00813293 114.91174316 C-83.0394258 114.91403493 -87.0688073 114.8670664 -91.09965658 114.8111515 C-95.31561637 114.76107723 -99.53162197 114.75643675 -103.74783325 114.74694824 C-111.72727269 114.72210151 -119.70583333 114.65647832 -127.6848861 114.57615232 C-136.77058043 114.48667486 -145.85631715 114.44273273 -154.94234252 114.40258884 C-173.62872624 114.3190098 -192.31429242 114.17833298 -211 114 C-211.49162261 112.40856198 -211.97950769 110.81596906 -212.46582031 109.22290039 C-212.87395966 107.89277672 -212.87395966 107.89277672 -213.29034424 106.53578186 C-214.1400449 103.49958369 -214.53690741 100.5806157 -214.75 97.4375 C-214.82734375 96.42558594 -214.9046875 95.41367187 -214.984375 94.37109375 C-214.98953125 93.58863281 -214.9946875 92.80617188 -215 92 C-214 91 -214 91 -210.9375 90.9375 C-209.968125 90.958125 -208.99875 90.97875 -208 91 C-205.7689989 94.877264 -205.60787968 98.26900037 -205.34375 102.66015625 C-205.13129529 105.26658259 -205.13129529 105.26658259 -203 108 C-203 109.32 -203 110.64 -203 112 C-196.25945189 111.90682206 -189.51923259 111.79941315 -182.77905273 111.68261719 C-180.49134316 111.64459342 -178.2035792 111.60969685 -175.91577148 111.578125 C-158.35444679 111.43453062 -158.35444679 111.43453062 -141 109 C-141.43143311 108.1850708 -141.86286621 107.3701416 -142.30737305 106.53051758 C-143.33642578 104.5867513 -144.36547852 102.64298503 -145.39453125 100.69921875 C-146.7859587 98.3598602 -148.1029966 96.88574522 -150 95 C-150.25 92.375 -150.25 92.375 -150 90 C-149 89 -149 89 -146.3125 88.4375 C-142.51158345 89.08293866 -142.13020733 89.56765662 -139.875 92.5 C-133 102.68585526 -133 102.68585526 -133 108 C-122.605 107.01 -122.605 107.01 -112 106 C-112.36839926 100.12084571 -112.36839926 100.12084571 -112.74829102 94.24243164 C-112.79139404 93.51403076 -112.83449707 92.78562988 -112.87890625 92.03515625 C-112.94960327 90.91185913 -112.94960327 90.91185913 -113.02172852 89.76586914 C-113 88 -113 88 -112 87 C-109.0625 86.8125 -109.0625 86.8125 -106 87 C-103.42337719 89.57662281 -103.65884312 90.92083461 -103.4375 94.5 C-103.26480654 98.39598635 -103.26480654 98.39598635 -102 102 C-101.30519531 101.4225 -100.61039062 100.845 -99.89453125 100.25 C-92.62940114 94.94617878 -86.9236631 93.20612663 -77.875 93.1875 C-76.95050049 93.17654297 -76.02600098 93.16558594 -75.07348633 93.15429688 C-68.62313401 93.34014136 -68.62313401 93.34014136 -65.9453125 96.17578125 C-64.95886061 99.12290818 -64.35878808 101.91442254 -64 105 C-59.33277452 97.04137514 -54.95530663 89.19025265 -51.5 80.625 C-48.96219572 74.44059139 -45.88001643 70.03824794 -41.140625 65.234375 C-37.88035734 61.83132189 -35.44436979 58.01146577 -33 54 C-32.62101563 53.38253906 -32.24203125 52.76507813 -31.8515625 52.12890625 C-30.14317465 49.24519894 -28.71787635 46.36307432 -27.5 43.25 C-26 40 -26 40 -23.9375 38.5 C-21.05230069 36.26629731 -20.98105182 33.46253583 -20 30 C-18.1881125 26.92985729 -16.14591648 24.08484216 -13.55249023 21.62963867 C-11.95344831 19.95113501 -10.94890963 18.37924559 -9.84375 16.34765625 C-9.46089844 15.65349609 -9.07804688 14.95933594 -8.68359375 14.24414062 C-8.29300781 13.52419922 -7.90242187 12.80425781 -7.5 12.0625 C-2.78571429 3.41964286 -2.78571429 3.41964286 0 0 Z " fill="#040404" transform="translate(345,398)"/>
<path d="M0 0 C2.4375 0.1875 2.4375 0.1875 3.4375 1.1875 C5.09887266 14.95315917 -1.05913264 25.88669274 -7.890625 37.2890625 C-10.04119729 41.01739109 -10.63376714 43.72451121 -10.8125 47.9375 C-11.42364235 55.46156399 -14.01902798 62.12758233 -16.5625 69.1875 C-17.2353268 71.18543607 -17.90217579 73.18539701 -18.5625 75.1875 C-19.07876953 76.70537109 -19.07876953 76.70537109 -19.60546875 78.25390625 C-22.99547246 88.60903702 -25.56638917 99.11558926 -28.06323242 109.71899414 C-28.88560468 113.21118554 -29.71861198 116.7004478 -30.5625 120.1875 C-30.81088623 121.21504395 -31.05927246 122.24258789 -31.31518555 123.30126953 C-32.65105232 128.53566817 -34.16186338 132.85519802 -37.125 137.4375 C-39.77947781 141.74266148 -41.43967587 145.28790378 -42.5625 150.1875 C-43.22916667 151.52083333 -43.89583333 152.85416667 -44.5625 154.1875 C-45.25189809 156.51421854 -45.91716922 158.84817594 -46.5625 161.1875 C-46.8925 162.095 -47.2225 163.0025 -47.5625 163.9375 C-48.61617696 167.03308456 -48.61617696 167.03308456 -48.88671875 169.7265625 C-50.01213641 178.51208099 -53.35811664 182.61646926 -60 188.2578125 C-66.34504845 193.65497262 -71.50886405 199.29434715 -74.5625 207.1875 C-74.67958224 209.88042774 -74.67958224 209.88042774 -73.5625 212.1875 C-65.05004608 218.84269125 -53.68046775 219.3643093 -43.34765625 219.74609375 C-40.5625 220.1875 -40.5625 220.1875 -38.66796875 221.58984375 C-37.5625 223.1875 -37.5625 223.1875 -37.8125 225.3125 C-38.5625 227.1875 -38.5625 227.1875 -39.5625 228.1875 C-56.17430068 229.23333811 -68.3640587 227.17954031 -81.5625 217.1875 C-83.8565184 214.8934816 -84.0349575 214.21153991 -84.3125 211.0625 C-84.08427668 202.27590228 -77.93187496 193.43124945 -71.77929688 187.45556641 C-69.93397826 185.84261046 -68.06835997 184.25882331 -66.1875 182.6875 C-59.58791078 177.1505861 -57.47582443 172.13326595 -56.140625 163.71875 C-55.5625 160.1875 -55.5625 160.1875 -54.546875 157.78125 C-53.59339421 155.26890379 -53.42080414 153.58434667 -53.26953125 150.9375 C-52.74701457 145.42773811 -50.22637465 141.73740261 -47.25 137.1875 C-41.79394996 128.33886131 -39.32712057 120.3468184 -37.5625 110.1875 C-35.23490487 98.84576373 -31.81739648 87.87331864 -28.38183594 76.82910156 C-27.67573508 74.55257854 -26.97862941 72.27375945 -26.2890625 69.9921875 C-25.94617188 68.86039062 -25.60328125 67.72859375 -25.25 66.5625 C-24.96511719 65.62148438 -24.68023437 64.68046875 -24.38671875 63.7109375 C-23.5625 61.1875 -23.5625 61.1875 -22.49609375 58.7734375 C-21.36010995 55.62690498 -21.19227989 52.77147687 -20.9375 49.4375 C-20.20533805 42.53340842 -17.95745227 37.18520825 -14.81152344 31.05151367 C-11.30160952 24.06101439 -9.03604211 16.80964634 -6.8215332 9.32202148 C-6.41874146 7.97346069 -6.41874146 7.97346069 -6.0078125 6.59765625 C-5.77594238 5.79465088 -5.54407227 4.99164551 -5.30517578 4.16430664 C-4.16155515 1.12029077 -3.26740749 0.2390786 0 0 Z " fill="#050505" transform="translate(97.5625,253.8125)"/>
<path d="M0 0 C0.85400391 0.00193359 1.70800781 0.00386719 2.58789062 0.00585938 C3.43029297 -0.03474609 4.27269531 -0.07535156 5.140625 -0.1171875 C8.71809602 -0.13676709 11.25535993 -0.10099136 14.14135742 2.14648438 C16.78866314 5.14662977 18.9469783 8.35330662 20.46289062 12.06835938 C20.77742188 12.83664062 21.09195313 13.60492188 21.41601562 14.39648438 C22.49225122 17.2729686 23.50223129 20.15791391 24.43554688 23.08398438 C25.0650502 25.03983656 25.7235778 26.98638717 26.39648438 28.92773438 C29.12276371 36.84328683 31.44863885 44.78669458 33.48779297 52.90771484 C34.46535406 56.76912253 35.54427002 60.51013526 36.89257812 64.25976562 C38.77504171 69.77175319 38.73204783 74.91920848 38.86914062 80.72851562 C39.25612214 84.50530635 40.06501907 87.12946384 41.47753906 90.58374023 C42.93109293 94.42711813 43.72863521 98.44588802 44.65039062 102.44335938 C46.31332188 109.45695577 48.26561256 115.79922973 51.45507812 122.28320312 C52.43241586 125.15471448 52.10916583 126.81632023 51.27539062 129.69335938 C49.62539062 129.69335938 47.97539062 129.69335938 46.27539062 129.69335938 C45.67059378 128.33947404 45.06659308 126.98523305 44.46289062 125.63085938 C44.12644531 124.87675781 43.79 124.12265625 43.44335938 123.34570312 C43.05792969 122.47042969 42.6725 121.59515625 42.27539062 120.69335938 C41.77523437 119.58992188 41.27507812 118.48648438 40.75976562 117.34960938 C39.26539005 113.66872637 38.2588688 110.11764339 37.33789062 106.25585938 C36.99712221 104.83910188 36.65596545 103.42243774 36.31445312 102.00585938 C36.14333008 101.28914063 35.97220703 100.57242188 35.79589844 99.83398438 C35.2967305 97.78112111 34.77244185 95.73685123 34.23632812 93.69335938 C32.54457451 87.20910944 31.10015601 80.82707185 30.08789062 74.19335938 C28.1579404 61.96637326 24.31036739 50.08288879 20.86384583 38.21470642 C19.49657429 33.49969718 18.20161369 28.76889471 16.95654297 24.02026367 C15.05345593 17.51907279 12.44961117 11.17768385 7.27539062 6.69335938 C4.1834163 6.04919806 1.34784048 5.91468348 -1.72460938 6.69335938 C-4.27389129 10.51728224 -4.67569136 14.0428881 -5.44810486 18.53062439 C-6.14841048 22.5605847 -6.89522123 26.5737574 -7.7253418 30.57910156 C-10.27271428 43.14908089 -11.3261228 55.32162597 -11.59466553 68.12979126 C-12.67331479 116.12675496 -12.67331479 116.12675496 -25.34960938 133.13085938 C-25.94 133.93394531 -26.53039062 134.73703125 -27.13867188 135.56445312 C-27.92371094 136.61826172 -27.92371094 136.61826172 -28.72460938 137.69335938 C-29.38460937 138.68335938 -30.04460937 139.67335937 -30.72460938 140.69335938 C-32.04460937 140.36335937 -33.36460938 140.03335938 -34.72460938 139.69335938 C-35.77771269 136.45214138 -35.95221727 135.1472363 -34.39648438 132.04492188 C-33.76226562 131.14515625 -33.12804687 130.24539062 -32.47460938 129.31835938 C-27.2151643 121.4813688 -24.70515266 113.85985289 -22.72460938 104.69335938 C-22.55759521 104.00790039 -22.39058105 103.32244141 -22.21850586 102.61621094 C-20.23908233 93.50161389 -20.27701982 84.25603946 -20.00543213 74.97186279 C-19.5405189 59.88453142 -18.8094388 44.97427468 -16.34960938 30.06835938 C-16.15262451 28.86985352 -15.95563965 27.67134766 -15.75268555 26.43652344 C-11.0338776 0.25136092 -11.0338776 0.25136092 0 0 Z " fill="#070606" transform="translate(149.724609375,-0.693359375)"/>
<path d="M0 0 C2.17652339 3.26478508 2.32108176 4.67840059 2.5625 8.5 C2.76817016 11.62282857 3.00550945 14.01652836 4 17 C4.15429569 19.33157935 4.27453916 21.66548141 4.375 24 C4.73140047 35.41470868 4.73140047 35.41470868 10.06640625 44.90234375 C12.67018098 47.72704482 12.52782905 49.58533312 12.625 53.375 C12.77532555 58.31261614 13.3682779 61.10483371 15 66 C-3.15 66 -21.3 66 -40 66 C-38.58962297 63.17924595 -37.47289775 61.18036397 -35.62109375 58.76171875 C-32.88358112 54.99299946 -30.96467985 51.05027389 -29.0625 46.8125 C-28.36647796 45.30962127 -27.66985986 43.80701845 -26.97265625 42.3046875 C-25.77990694 39.71115785 -24.60193382 37.11254073 -23.43359375 34.5078125 C-20.64943606 28.54501157 -17.78951318 24.43603877 -12.94921875 19.9921875 C-9.52362374 16.49107837 -7.37750193 12.24601754 -5 8 C-4.05100734 6.45256605 -3.093413 4.91035506 -2.125 3.375 C-1.073125 1.704375 -1.073125 1.704375 0 0 Z " fill="#FCFCFC" transform="translate(325,446)"/>
<path d="M0 0 C6.94248954 4.72834236 12.19962167 11.04099266 14.30859375 19.28515625 C14.75886928 24.05807684 14.69780384 28.80753747 14.62109375 33.59765625 C14.03094482 33.61223877 13.4407959 33.62682129 12.83276367 33.6418457 C10.15738146 33.71634469 7.48324483 33.8129962 4.80859375 33.91015625 C3.87982422 33.93271484 2.95105469 33.95527344 1.99414062 33.97851562 C1.10146484 34.01396484 0.20878906 34.04941406 -0.7109375 34.0859375 C-1.53311768 34.11212158 -2.35529785 34.13830566 -3.20239258 34.1652832 C-5.84433156 34.69011483 -6.55561389 35.69223641 -8.37890625 37.59765625 C-17.70258702 38.74266968 -25.89439644 34.57622521 -33.39453125 29.296875 C-37.70712889 25.60400103 -39.89518028 21.6441892 -41.19140625 16.16015625 C-39.91303715 10.55499943 -36.55739644 7.39305905 -32.37890625 3.59765625 C-31.77433594 3.04207031 -31.16976563 2.48648438 -30.546875 1.9140625 C-22.65786526 -3.75766955 -8.72522414 -3.62122019 0 0 Z " fill="#FBFBFB" transform="translate(288.37890625,206.40234375)"/>
<path d="M0 0 C1.50409424 0.00664673 1.50409424 0.00664673 3.03857422 0.01342773 C13.55121046 0.41385268 20.33386543 4.27210217 27.5625 11.75 C28.875 13.4375 28.875 13.4375 30.75 16.875 C31.31074219 17.88240234 31.31074219 17.88240234 31.8828125 18.91015625 C35.43973338 25.56383691 35.9727733 31.54670244 36.0625 39 C36.10600586 40.21623047 36.10600586 40.21623047 36.15039062 41.45703125 C36.21363066 47.34321874 36.21363066 47.34321874 33.99609375 49.88671875 C30.53476107 51.40970513 27.51182601 51.5615145 23.75 51.875 C23.42 53.195 23.09 54.515 22.75 55.875 C18.47940439 55.99265973 14.20923403 56.06273631 9.9375 56.125 C8.74189453 56.15851563 7.54628906 56.19203125 6.31445312 56.2265625 C-5.80667388 56.35867288 -14.60915348 53.08205161 -24.25 45.875 C-25.3225 45.111875 -26.395 44.34875 -27.5 43.5625 C-32.60396243 38.57453672 -35.50718612 33.5277629 -35.9375 26.3125 C-35.62948251 20.34362061 -33.38033371 17.03181021 -29.25 12.875 C-28.64671875 12.25753906 -28.0434375 11.64007813 -27.421875 11.00390625 C-19.38898172 3.41184248 -11.03420928 -0.08819198 0 0 Z M-20.25 14.875 C-20.95769531 15.51308594 -21.66539062 16.15117187 -22.39453125 16.80859375 C-25.43788457 19.88796308 -27.05805154 22.06291035 -28.0625 26.3125 C-26.68171876 32.36669467 -23.85686317 36.87206013 -18.90625 40.67578125 C-11.34521344 45.37809257 -4.26881312 48.79216744 4.75 47.875 C5.22477783 47.38281982 5.69955566 46.89063965 6.1887207 46.38354492 C8.27313726 44.36953242 9.55595836 44.45442808 12.41796875 44.36328125 C13.31064453 44.32783203 14.20332031 44.29238281 15.12304688 44.25585938 C16.51620117 44.22202148 16.51620117 44.22202148 17.9375 44.1875 C18.87787109 44.15333984 19.81824219 44.11917969 20.78710938 44.08398438 C23.10795393 44.00151782 25.42842148 43.93236597 27.75 43.875 C28.08952593 33.61377192 27.54691611 25.03780356 20.75 16.875 C11.3913734 8.48785713 4.40980101 7.97276406 -7.87646484 8.60986328 C-13.03703129 9.18632647 -16.5149672 11.41881051 -20.25 14.875 Z " fill="#060606" transform="translate(275.25,196.125)"/>
<path d="M0 0 C2.625 -0.1875 2.625 -0.1875 5 0 C10.02263054 10.04526107 5.59030264 30.74936909 2.76171875 40.86328125 C1.54650193 45.86748179 1.01995464 50.93249797 0.4296875 56.04296875 C0 59 0 59 -1 60 C-1.40361526 61.86904915 -1.77072076 63.74597466 -2.125 65.625 C-3.77253047 73.60728512 -6.13671277 81.31758015 -8.57470703 89.09033203 C-8.87231934 90.04149902 -9.16993164 90.99266602 -9.4765625 91.97265625 C-9.74549316 92.82093994 -10.01442383 93.66922363 -10.29150391 94.54321289 C-11.76665579 99.65846217 -12.147801 104.42051866 -12.1328125 109.73046875 C-12.13408646 110.47482178 -12.13536041 111.2191748 -12.13667297 111.98608398 C-12.13846948 114.38659648 -12.13215174 116.7869988 -12.125 119.1875 C-12.12444611 119.99869293 -12.12389221 120.80988586 -12.12332153 121.6456604 C-12.11532396 131.56006297 -12.04705096 141.44866206 -11.26806641 151.33862305 C-11.14752004 152.89030714 -11.06798462 154.44512603 -11 156 C-12 157 -12 157 -14.5625 157.0625 C-15.366875 157.041875 -16.17125 157.02125 -17 157 C-21.64099934 146.300763 -21.39929635 134.24904319 -21.42553711 122.77270508 C-21.43740292 120.33246433 -21.4867377 117.894787 -21.53710938 115.45507812 C-21.64797259 104.59109867 -19.95629208 95.16942625 -16.60079956 84.84976196 C-15.84644934 82.52724305 -15.16543868 80.18587944 -14.48828125 77.83984375 C-14.09724038 76.53879581 -13.70536899 75.23799708 -13.3125 73.9375 C-11.6379121 68.32827962 -10.18608669 62.73275235 -9 57 C-8.67 56.01 -8.34 55.02 -8 54 C-7.57076993 50.6924036 -7.18941041 47.38487211 -6.83789062 44.06835938 C-6.75861328 43.37935547 -6.67933594 42.69035156 -6.59765625 41.98046875 C-6.53070557 41.36067139 -6.46375488 40.74087402 -6.39477539 40.10229492 C-6 38 -6 38 -4.99780273 35.17773438 C-3.92049702 31.74680431 -3.62413203 28.76273974 -3.4375 25.17578125 C-3.36273438 23.90025391 -3.28796875 22.62472656 -3.2109375 21.31054688 C-3.10346155 19.302768 -2.99908945 17.29484853 -2.89550781 15.28686523 C-2.79189747 13.3327646 -2.67735189 11.3792534 -2.5625 9.42578125 C-2.47162109 7.68421753 -2.47162109 7.68421753 -2.37890625 5.9074707 C-2 3 -2 3 0 0 Z " fill="#030202" transform="translate(307,286)"/>
<path d="M0 0 C2.93453261 0.36681658 3.86437246 0.86437246 6 3 C6.31884766 5.24658203 6.31884766 5.24658203 6.4140625 8.0078125 C6.45273437 8.99394531 6.49140625 9.98007812 6.53125 10.99609375 C6.5621875 12.02863281 6.593125 13.06117187 6.625 14.125 C6.66367187 15.16527344 6.70234375 16.20554687 6.7421875 17.27734375 C6.83664766 19.85138311 6.92221214 22.42541155 7 25 C7.99 25.33 8.98 25.66 10 26 C12.28927352 31.90391591 13.03821594 37.88535219 11 44 C12.32 44.66 13.64 45.32 15 46 C15.125 48.875 15.125 48.875 15 52 C14.34 52.66 13.68 53.32 13 54 C14.32 54.66 15.64 55.32 17 56 C17.25 58.3125 17.25 58.3125 17 61 C14.95575462 62.97610386 13.8823175 64 11 64 C11.495 64.86625 11.99 65.7325 12.5 66.625 C14.0477761 70.10749623 14.26802896 72.24759458 14 76 C12.125 77.0625 12.125 77.0625 10 78 C9.34 77.67 8.68 77.34 8 77 C7.67 65.78 7.34 54.56 7 43 C5.35 43 3.7 43 2 43 C1.99413376 43.63369507 1.98826752 44.26739014 1.98222351 44.92028809 C1.91809184 51.53959514 1.83362142 58.15842488 1.73754883 64.77734375 C1.70437637 67.24472749 1.67632074 69.71218571 1.65356445 72.1796875 C1.61987787 75.73469666 1.56755298 79.28902798 1.51171875 82.84375 C1.50532883 83.93989624 1.4989389 85.03604248 1.49235535 86.16540527 C1.37251449 92.46480896 0.60638675 97.24713704 -2 103 C-3.875 102.6875 -3.875 102.6875 -6 102 C-6.66 101.01 -7.32 100.02 -8 99 C-10.02463255 98.34786708 -10.02463255 98.34786708 -12 98 C-13 97 -13 97 -13.3125 93.75 C-13.2663847 88.63120134 -11.66421059 84.0691113 -10.0703125 79.24609375 C-8.10658234 73.29040119 -6.75519994 68.10718344 -6.69140625 61.80078125 C-6.66839447 60.42227473 -6.6449403 59.04377554 -6.62109375 57.6652832 C-6.61190918 56.95409332 -6.60272461 56.24290344 -6.59326172 55.51016235 C-6.42597683 43.55908422 -5.77541342 32.00499254 -3.69140625 20.21484375 C-2.77653398 15.01307323 -2.51344953 9.83127571 -2.30859375 4.5546875 C-2 2 -2 2 0 0 Z " fill="#ADACAC" transform="translate(334,32)"/>
<path d="M0 0 C0.99 0.99 0.99 0.99 2 2 C1.75 4.5625 1.75 4.5625 1 7 C-1.23688181 8.11844091 -2.55970528 8.16491276 -5.04296875 8.24609375 C-6.27297607 8.2934668 -6.27297607 8.2934668 -7.52783203 8.34179688 C-8.40552246 8.37337891 -9.28321289 8.40496094 -10.1875 8.4375 C-24.47695429 8.47177543 -24.47695429 8.47177543 -38 12 C-40.96997639 12.23259653 -43.91946822 12.40473361 -46.89453125 12.53125 C-47.81885452 12.57278198 -48.7431778 12.61431396 -49.69551086 12.65710449 C-63.24232183 13.2254113 -76.8024439 13.35932021 -90.35864258 13.55224609 C-93.88891072 13.60370704 -97.41905012 13.66091858 -100.94921875 13.71875 C-102.03232834 13.73232544 -103.11543793 13.74590088 -104.23136902 13.7598877 C-105.22453629 13.77660522 -106.21770355 13.79332275 -107.2409668 13.81054688 C-108.11472458 13.82307495 -108.98848236 13.83560303 -109.88871765 13.84851074 C-112.05618181 13.86890165 -112.05618181 13.86890165 -114 15 C-115.51845202 15.09472912 -117.04110384 15.1298841 -118.5625 15.125 C-119.77099609 15.12886719 -119.77099609 15.12886719 -121.00390625 15.1328125 C-123 15 -123 15 -124 14 C-124.1875 11.5625 -124.1875 11.5625 -124 9 C-120.57987438 5.57987438 -116.29158772 5.87412242 -111.64648438 5.81054688 C-110.60190063 5.79382935 -109.55731689 5.77711182 -108.4810791 5.7598877 C-107.3632605 5.74631226 -106.24544189 5.73273682 -105.09375 5.71875 C-103.93629272 5.70034058 -102.77883545 5.68193115 -101.58630371 5.66296387 C-96.63982204 5.58443241 -91.69320631 5.51660896 -86.74658203 5.44775391 C-83.13307171 5.39593538 -79.51967411 5.33872172 -75.90625 5.28125 C-74.7884314 5.26767456 -73.67061279 5.25409912 -72.5189209 5.2401123 C-71.47433716 5.22339478 -70.42975342 5.20667725 -69.35351562 5.18945312 C-68.4381604 5.17692505 -67.52280518 5.16439697 -66.57971191 5.15148926 C-63.96842922 4.99814606 -61.55342207 4.55181817 -59 4 C-57.40467669 3.87257119 -55.80628668 3.77938528 -54.20703125 3.71875 C-53.32982422 3.68136719 -52.45261719 3.64398438 -51.54882812 3.60546875 C-49.71290795 3.53470523 -47.87697013 3.46439844 -46.04101562 3.39453125 C-45.16767578 3.35714844 -44.29433594 3.31976563 -43.39453125 3.28125 C-42.59893799 3.25095703 -41.80334473 3.22066406 -40.98364258 3.18945312 C-38.92605977 3.11309241 -38.92605977 3.11309241 -37 2 C-34.74892725 1.77537262 -32.49217417 1.60672015 -30.234375 1.46484375 C-29.56335754 1.42186661 -28.89234009 1.37888947 -28.20098877 1.33460999 C-26.77881472 1.24438544 -25.35650611 1.15626129 -23.93408203 1.07006836 C-21.77213362 0.93884346 -19.61068311 0.80105713 -17.44921875 0.66210938 C-3.64769346 -0.20520778 -3.64769346 -0.20520778 0 0 Z " fill="#040404" transform="translate(235,472)"/>
<path d="M0 0 C3.80091655 0.64543866 4.18229267 1.13015662 6.4375 4.0625 C13.3125 14.24835526 13.3125 14.24835526 13.3125 19.5625 C16.77216438 19.2854061 20.22982798 18.98836237 23.6875 18.6875 C24.67234375 18.60886719 25.6571875 18.53023438 26.671875 18.44921875 C28.08339844 18.32353516 28.08339844 18.32353516 29.5234375 18.1953125 C30.39274902 18.12199707 31.26206055 18.04868164 32.15771484 17.97314453 C34.51705644 17.73276524 34.51705644 17.73276524 36.3125 15.5625 C39.25 16.375 39.25 16.375 42.3125 17.5625 C42.8075 19.0475 42.8075 19.0475 43.3125 20.5625 C47.97426673 20.02187385 47.97426673 20.02187385 52.4375 18.6875 C54.3125 18.5625 54.3125 18.5625 57 20.875 C59.3125 23.5625 59.3125 23.5625 60.3125 25.5625 C19.0625 25.5625 -22.1875 25.5625 -64.6875 25.5625 C-68.08166058 14.24863139 -68.08166058 14.24863139 -68.4375 9 C-68.51484375 7.98808594 -68.5921875 6.97617187 -68.671875 5.93359375 C-68.67703125 5.15113281 -68.6821875 4.36867188 -68.6875 3.5625 C-67.6875 2.5625 -67.6875 2.5625 -64.625 2.5 C-63.1709375 2.5309375 -63.1709375 2.5309375 -61.6875 2.5625 C-59.4564989 6.439764 -59.29537968 9.83150037 -59.03125 14.22265625 C-58.81879529 16.82908259 -58.81879529 16.82908259 -56.6875 19.5625 C-56.6875 20.8825 -56.6875 22.2025 -56.6875 23.5625 C-49.94695189 23.46932206 -43.20673259 23.36191315 -36.46655273 23.24511719 C-34.17884316 23.20709342 -31.8910792 23.17219685 -29.60327148 23.140625 C-12.04194679 22.99703062 -12.04194679 22.99703062 5.3125 20.5625 C4.88106689 19.7475708 4.44963379 18.9326416 4.00512695 18.09301758 C2.97607422 16.1492513 1.94702148 14.20548503 0.91796875 12.26171875 C-0.4734587 9.9223602 -1.7904966 8.44824522 -3.6875 6.5625 C-3.9375 3.9375 -3.9375 3.9375 -3.6875 1.5625 C-2.6875 0.5625 -2.6875 0.5625 0 0 Z " fill="#080808" transform="translate(198.6875,486.4375)"/>
<path d="M0 0 C1.546875 0.185625 1.546875 0.185625 3.125 0.375 C5.43189161 3.58623309 6.77772704 6.86240778 8 10.6015625 C8.3400708 11.62032471 8.6801416 12.63908691 9.03051758 13.6887207 C9.39169678 14.78144287 9.75287598 15.87416504 10.125 17 C13.7770724 27.83506931 17.86155936 38.42075339 22.31835938 48.94970703 C26.33535424 58.53222166 30.02375515 68.26400183 31.3125 78.625 C31.49457892 82.31675174 31.49457892 82.31675174 33.125 85.375 C33.16592937 87.70797433 33.16741723 90.04205225 33.125 92.375 C30.65 92.87 30.65 92.87 28.125 93.375 C23.996139 87.6745968 22.24156509 82.78415698 21.1875 75.875 C19.53518697 66.50061719 16.78307735 58.13737134 13.125 49.375 C12.67769531 48.27285156 12.23039062 47.17070312 11.76953125 46.03515625 C9.96067959 41.62155819 8.07555926 37.26126931 6.0625 32.9375 C3.95446969 28.27274217 2.58413193 23.43459101 1.140625 18.53125 C0.224283 15.68354103 -0.84707108 13.07484984 -2.125 10.375 C-3.59201963 7.24535812 -4.42503903 4.89524981 -3.875 1.375 C-2.875 0.375 -2.875 0.375 0 0 Z " fill="#030202" transform="translate(392.875,320.625)"/>
<path d="M0 0 C0 1.32 0 2.64 0 4 C0.66 4 1.32 4 2 4 C2.19658808 5.41543415 2.38187546 6.83244031 2.5625 8.25 C2.66691406 9.03890625 2.77132813 9.8278125 2.87890625 10.640625 C3.00091662 13.01785933 2.61753866 14.72282619 2 17 C2.37907282 19.18703385 2.37907282 19.18703385 3 21 C2.34 21.33 1.68 21.66 1 22 C0.67 21.34 0.34 20.68 0 20 C-2.43717258 20.27034634 -2.43717258 20.27034634 -5 21 C-7.40119059 24.60178588 -7.43771322 27.50866369 -7.625 31.6875 C-7.66367187 32.38939453 -7.70234375 33.09128906 -7.7421875 33.81445312 C-7.8362334 35.54254655 -7.9191968 37.27123675 -8 39 C-11.04260726 37.05978667 -14.02530979 35.04264965 -17 33 C-17.93199219 32.38511719 -18.86398437 31.77023437 -19.82421875 31.13671875 C-26.45206985 26.41874771 -26.45206985 26.41874771 -27.875 22.734375 C-28.17047533 19.11480216 -27.67848721 16.91826672 -25.5078125 13.98046875 C-23.75208875 12.19083617 -21.93122823 10.59626145 -20 9 C-18.98979094 8.01031437 -17.98625097 7.01356254 -17 6 C-16.01 6.66 -15.02 7.32 -14 8 C-13.443125 7.071875 -12.88625 6.14375 -12.3125 5.1875 C-8.75731678 0.28711232 -6.00914433 -1.88858822 0 0 Z " fill="#090808" transform="translate(500,238)"/>
<path d="M0 0 C2.5 0.125 2.5 0.125 3.5 1.125 C3.58847743 3.64594076 3.61527301 6.13930893 3.59765625 8.66015625 C3.5962413 9.41340683 3.59482635 10.16665741 3.59336853 10.94273376 C3.58775376 13.3576956 3.57519883 15.77256601 3.5625 18.1875 C3.5574869 19.82096221 3.55292366 21.45442586 3.54882812 23.08789062 C3.53777954 27.10029585 3.52050506 31.11263241 3.5 35.125 C4.49 35.455 5.48 35.785 6.5 36.125 C6.62117188 36.80046875 6.74234375 37.4759375 6.8671875 38.171875 C7.11855469 39.50992188 7.11855469 39.50992188 7.375 40.875 C7.53742188 41.75671875 7.69984375 42.6384375 7.8671875 43.546875 C8.47003862 46.00293513 9.35548604 47.8882113 10.5 50.125 C10.6875 52.8125 10.6875 52.8125 10.5 55.125 C10.17 55.455 9.84 55.785 9.5 56.125 C7.85 56.125 6.2 56.125 4.5 56.125 C2.85 59.425 1.2 62.725 -0.5 66.125 C-2.48 65.795 -4.46 65.465 -6.5 65.125 C-6.35831863 63.68708484 -6.21148957 62.2496763 -6.0625 60.8125 C-5.98128906 60.01199219 -5.90007812 59.21148437 -5.81640625 58.38671875 C-5.5 56.125 -5.5 56.125 -4.5 53.125 C-4.38958121 51.4280341 -4.3338515 49.72725027 -4.31054688 48.02685547 C-4.28547058 46.47041824 -4.28547058 46.47041824 -4.2598877 44.88253784 C-4.24631226 43.76372223 -4.23273682 42.64490662 -4.21875 41.4921875 C-4.19113586 39.77082077 -4.19113586 39.77082077 -4.16296387 38.01467896 C-4.08413373 33.09402959 -4.0163566 28.17324234 -3.94775391 23.25244141 C-3.89618238 19.66561786 -3.83888437 16.07891789 -3.78125 12.4921875 C-3.76767456 11.36932343 -3.75409912 10.24645935 -3.7401123 9.08956909 C-3.72339478 8.0582486 -3.70667725 7.0269281 -3.68945312 5.96435547 C-3.67692505 5.05185028 -3.66439697 4.13934509 -3.65148926 3.19918823 C-3.427789 0.13628833 -3.08873976 0.15443699 0 0 Z " fill="#020202" transform="translate(338.5,73.875)"/>
<path d="M0 0 C3.53571429 0.53571429 3.53571429 0.53571429 5 2 C5.40875026 4.38291894 5.7634635 6.7534694 6.0859375 9.1484375 C6.29672589 10.64455227 6.5076687 12.14064528 6.71875 13.63671875 C7.04587712 15.99037887 7.37080761 18.34430524 7.69238281 20.69873047 C9.17734354 36.3287358 9.17734354 36.3287358 15.25 50.375 C17 53 17 53 16.75 55.875 C16.5025 56.57625 16.255 57.2775 16 58 C14.35 57.67 12.7 57.34 11 57 C10.76925781 57.71027344 10.53851563 58.42054687 10.30078125 59.15234375 C9.97464844 60.07144531 9.64851562 60.99054688 9.3125 61.9375 C8.99925781 62.85402344 8.68601563 63.77054688 8.36328125 64.71484375 C7 67 7 67 4.41796875 67.87890625 C3.22107422 67.93884766 3.22107422 67.93884766 2 68 C1.67 67.67 1.34 67.34 1 67 C1.144375 65.80375 1.28875 64.6075 1.4375 63.375 C3.44355818 46.53466951 1.37665588 29.06573383 -1.6171875 12.45703125 C-2.17517314 8.87567443 -2.26793273 5.6170919 -2 2 C-1.34 1.34 -0.68 0.68 0 0 Z " fill="#030202" transform="translate(146,58)"/>
<path d="M0 0 C2.375 0.25 2.375 0.25 3.375 1.25 C3.73828125 3.46875 3.73828125 3.46875 3.375 6.25 C1.29296875 8.96875 1.29296875 8.96875 -1.4375 11.75 C-6.84792698 17.30876481 -10.05409146 20.98029911 -10.3125 28.9375 C-10.1882568 36.81451863 -7.13000708 40.89975215 -1.625 46.25 C-0.965 46.91 -0.305 47.57 0.375 48.25 C0 50.875 0 50.875 -0.625 53.25 C-2.8046875 54.03515625 -2.8046875 54.03515625 -5.625 54.25 C-8.1953125 52.37109375 -8.1953125 52.37109375 -10.75 49.6875 C-11.59820312 48.81996094 -12.44640625 47.95242187 -13.3203125 47.05859375 C-18.02761358 41.32206922 -19.18552134 36.71792579 -19.125 29.5 C-19.11855469 28.70231201 -19.11210938 27.90462402 -19.10546875 27.08276367 C-18.86738805 19.38664855 -17.09633371 13.78886939 -11.6171875 8.203125 C-9.6735736 6.4674993 -7.6700222 4.862915 -5.625 3.25 C-5.10421875 2.69699219 -4.5834375 2.14398438 -4.046875 1.57421875 C-2.625 0.25 -2.625 0.25 0 0 Z " fill="#070606" transform="translate(107.625,166.75)"/>
<path d="M0 0 C0.33 0 0.66 0 1 0 C1.12117187 0.94359375 1.24234375 1.8871875 1.3671875 2.859375 C2.16745321 8.99064155 2.98678436 15.0971701 4.0625 21.1875 C5.0665397 27.1168683 5.67897652 32.99540166 6 39 C6.07734375 40.25683594 6.1546875 41.51367188 6.234375 42.80859375 C6.6760317 55.18724967 6.6760317 55.18724967 2.4375 60.73828125 C1 62 1 62 -1.6875 62.625 C-4 62 -4 62 -6 60 C-6.15112305 58.13647461 -6.15112305 58.13647461 -6.01171875 55.90234375 C-5.94114258 54.70061523 -5.94114258 54.70061523 -5.86914062 53.47460938 C-5.77922852 52.21874023 -5.77922852 52.21874023 -5.6875 50.9375 C-5.63916016 50.09638672 -5.59082031 49.25527344 -5.54101562 48.38867188 C-5.14345552 42.14345552 -5.14345552 42.14345552 -4 41 C-3.94858197 38.51403342 -3.95815751 36.05481196 -4.0078125 33.5703125 C-4.02533286 32.03776708 -4.04224075 30.50521457 -4.05859375 28.97265625 C-4.08955331 26.54749103 -4.1250444 24.12267674 -4.17138672 21.69775391 C-4.21370554 19.36356198 -4.23716404 17.02978313 -4.2578125 14.6953125 C-4.27643341 13.97022491 -4.29505432 13.24513733 -4.3142395 12.49807739 C-4.34011046 7.42578628 -4.34011046 7.42578628 -2.52685547 5.15576172 C-2.02299316 4.77436035 -1.51913086 4.39295898 -1 4 C-0.28552357 1.89667109 -0.28552357 1.89667109 0 0 Z " fill="#AEACAC" transform="translate(143,62)"/>
<path d="M0 0 C5.41925671 2.45400304 8.78123867 6.53916931 11 12 C11.53833479 15.83563537 11.75730828 19.48538344 10 23 C8.02 23 6.04 23 4 23 C3.90203125 22.32453125 3.8040625 21.6490625 3.703125 20.953125 C2.7706967 15.38692767 2.7706967 15.38692767 0.3125 10.375 C-2.90633349 8.46109901 -5.32480796 8.65970444 -9 9 C-9.99 9.495 -9.99 9.495 -11 10 C-10.05335828 13.13119954 -9.13327388 15.78983735 -7.375 18.5625 C-5.82277391 21.31417353 -5.6545531 22.89097791 -6 26 C-7 27 -7 27 -9.875 27.375 C-13 27 -13 27 -14.625 25 C-15.07875 24.01 -15.5325 23.02 -16 22 C-16.35191406 21.38382812 -16.70382813 20.76765625 -17.06640625 20.1328125 C-19.55094643 15.6831482 -20.97961112 12.19193891 -20 7 C-13.90104985 0.76243735 -8.53733581 -1.05532836 0 0 Z " fill="#020202" transform="translate(203,409)"/>
<path d="M0 0 C2.5 0.125 2.5 0.125 3.5 1.125 C3.65537919 2.91186071 3.72233845 4.70660971 3.75 6.5 C3.77578125 7.47710937 3.8015625 8.45421875 3.828125 9.4609375 C2.95223263 19.24173558 -0.96515734 28.42377165 -4.5 37.5 C-4.93828125 38.64855469 -5.3765625 39.79710937 -5.828125 40.98046875 C-7.75404378 45.96349354 -9.63737453 50.59630168 -12.5 55.125 C-14.15 54.795 -15.8 54.465 -17.5 54.125 C-18.86748042 49.60893813 -18.02909661 46.91564646 -16.375 42.5625 C-16.14635254 41.94971191 -15.91770508 41.33692383 -15.68212891 40.70556641 C-14.19020238 36.7546672 -12.54993624 32.87584332 -10.875 29 C-8.6946833 23.90573803 -7.28333785 18.8282179 -6.078125 13.42578125 C-5.5 11.125 -5.5 11.125 -4.5 10.125 C-4.29300437 8.63003158 -4.13320741 7.1283408 -4 5.625 C-3.51716465 0.17585823 -3.51716465 0.17585823 0 0 Z " fill="#030202" transform="translate(226.5,321.875)"/>
<path d="M0 0 C0.7425 0.0825 1.485 0.165 2.25 0.25 C2.93359375 1.9921875 2.93359375 1.9921875 3.25 4.25 C2.03515625 6.3203125 2.03515625 6.3203125 0.3125 8.375 C-2.1027055 10.97884805 -2.1027055 10.97884805 -2.75 14.25 C-1.96625 14.064375 -1.1825 13.87875 -0.375 13.6875 C2.25 13.25 2.25 13.25 4.25 14.25 C3.92 15.9 3.59 17.55 3.25 19.25 C2.26 19.58 1.27 19.91 0.25 20.25 C0.58 21.24 0.91 22.23 1.25 23.25 C0.486875 23.806875 -0.27625 24.36375 -1.0625 24.9375 C-3.71795507 27.22242645 -5.0079107 29.2635612 -6.75 32.25 C-7.41 32.25 -8.07 32.25 -8.75 32.25 C-8.75 33.57 -8.75 34.89 -8.75 36.25 C-11.625 36.375 -11.625 36.375 -14.75 36.25 C-16.75 34.25 -16.75 34.25 -17.015625 31.89453125 C-16.94766659 19.57707031 -12.87873339 11.14769432 -4.6640625 1.90234375 C-2.75 0.25 -2.75 0.25 0 0 Z " fill="#040303" transform="translate(429.75,175.75)"/>
<path d="M0 0 C2.475 0.495 2.475 0.495 5 1 C5.33 1.99 5.66 2.98 6 4 C5.13375 5.5778125 5.13375 5.5778125 4.25 7.1875 C-1.17985533 17.42719258 -1.41023972 30.67660266 -2 42 C-6.29 41.67 -10.58 41.34 -15 41 C-13.02 40.505 -13.02 40.505 -11 40 C-11.32484375 39.21109375 -11.6496875 38.4221875 -11.984375 37.609375 C-13.26263485 33.06663616 -13.29284645 28.94168644 -13.25 24.25 C-13.25773438 23.38761719 -13.26546875 22.52523437 -13.2734375 21.63671875 C-13.27085937 20.81300781 -13.26828125 19.98929688 -13.265625 19.140625 C-13.26336914 18.39329102 -13.26111328 17.64595703 -13.25878906 16.87597656 C-13 15 -13 15 -11 13 C-8.875 13.375 -8.875 13.375 -7 14 C-6.74605469 13.32453125 -6.49210938 12.6490625 -6.23046875 11.953125 C-5.71419922 10.61507812 -5.71419922 10.61507812 -5.1875 9.25 C-4.85105469 8.36828125 -4.51460937 7.4865625 -4.16796875 6.578125 C-3.03153178 4.06960192 -1.73457073 2.12720995 0 0 Z " fill="#706160" transform="translate(249,93)"/>
<path d="M0 0 C4.12749529 2.64159698 6.3156058 5.45228153 8.125 10 C8.61735958 12.92851372 8.48784809 14.99354441 8.125 18 C7.465 18.66 6.805 19.32 6.125 20 C3.5 19.625 3.5 19.625 1.125 19 C0.94324219 18.28972656 0.76148437 17.57945312 0.57421875 16.84765625 C0.32285156 15.92855469 0.07148437 15.00945312 -0.1875 14.0625 C-0.43113281 13.14597656 -0.67476562 12.22945313 -0.92578125 11.28515625 C-1.23902344 10.53105469 -1.55226563 9.77695312 -1.875 9 C-4.62578884 8.08307039 -6.23448913 7.89113917 -9.0625 7.9375 C-10.320625 7.958125 -11.57875 7.97875 -12.875 8 C-13.84695772 11.12312886 -13.84394979 13.4634702 -13.375 16.6875 C-13.16870412 18.11984983 -12.99202959 19.55761028 -12.875 21 C-13.205 21.33 -13.535 21.66 -13.875 22 C-16.21444736 21.71269945 -18.5489143 21.38063221 -20.875 21 C-22.31019319 15.88712427 -23.48111456 11.35401198 -22.875 6 C-17.80250828 -2.15221884 -8.71496291 -2.96883352 0 0 Z " fill="#030202" transform="translate(106.875,417)"/>
<path d="M0 0 C1.3303125 0.7425 1.3303125 0.7425 2.6875 1.5 C2.6875 2.82 2.6875 4.14 2.6875 5.5 C1.38425781 5.86351562 1.38425781 5.86351562 0.0546875 6.234375 C-6.08623576 8.02032584 -11.20822838 9.63730796 -16.3125 13.5 C-16.9725 13.5 -17.6325 13.5 -18.3125 13.5 C-18.60125 14.11875 -18.89 14.7375 -19.1875 15.375 C-20.3125 17.5 -20.3125 17.5 -22.3125 19.5 C-22.3125 20.82 -22.3125 22.14 -22.3125 23.5 C-17.63299331 22.72188341 -14.55136548 19.88727412 -10.84765625 17.09375 C-8.25346879 15.46288947 -6.32668869 14.88823182 -3.3125 14.5 C-3.745625 15.21542969 -4.17875 15.93085938 -4.625 16.66796875 C-9.02240809 24.53647905 -10.09198211 30.55039056 -9.3125 39.5 C-11.3125 39.5 -11.3125 39.5 -12.79296875 38.03125 C-13.63794922 37.02578125 -13.63794922 37.02578125 -14.5 36 C-16.40491413 33.7476487 -18.30516892 31.5080396 -20.29296875 29.328125 C-20.91816406 28.64234375 -21.54335938 27.9565625 -22.1875 27.25 C-22.76242187 26.62609375 -23.33734375 26.0021875 -23.9296875 25.359375 C-25.44460532 23.32236686 -26.01374884 22.0124483 -26.3125 19.5 C-23.83961557 10.62670882 -18.55271037 4.97038117 -11.3125 -0.5 C-6.80951732 -2.00099423 -4.37447779 -1.9808956 0 0 Z " fill="#726463" transform="translate(453.3125,197.5)"/>
<path d="M0 0 C0.33 1.65 0.66 3.3 1 5 C-2.10407751 7.84540438 -4.87089835 8.58005598 -8.90234375 9.27734375 C-12.04521157 10.3600822 -13.72687167 11.5448665 -16 14 C-16.72100354 16.8932911 -16.74504349 19.71606953 -16.75 22.6875 C-16.92600756 30.92600756 -16.92600756 30.92600756 -18 32 C-20.4375 32.1875 -20.4375 32.1875 -23 32 C-26.19140455 28.80859545 -25.40828726 25.09296124 -25.4375 20.75 C-25.47037109 19.90308594 -25.50324219 19.05617188 -25.53710938 18.18359375 C-25.57373443 13.90179208 -25.43095203 10.93772597 -22.6796875 7.53125 C-16.68373721 1.8674369 -8.4281389 -2.63379341 0 0 Z " fill="#040303" transform="translate(282,444)"/>
<path d="M0 0 C2.5625 1.5625 2.5625 1.5625 4 4 C4.6875 7.375 4.6875 7.375 4 11 C1.6216775 14.28366581 -1.11886228 16.5030957 -5.0703125 17.546875 C-8.88056941 17.80765304 -10.86797995 17.09550387 -13.9375 14.875 C-16.25200474 11.64872066 -17.16574533 9.97788789 -17 6 C-12.25001091 0.06251364 -7.2743536 -0.91914215 0 0 Z " fill="#060606" transform="translate(280,215)"/>
<path d="M0 0 C1.2065625 0.0309375 1.2065625 0.0309375 2.4375 0.0625 C2.86339023 5.59907294 1.342747 9.95915983 -0.5625 15.0625 C0.7575 14.4025 2.0775 13.7425 3.4375 13.0625 C3.46439216 14.54156892 3.48384621 16.02077483 3.5 17.5 C3.51160156 18.32371094 3.52320313 19.14742188 3.53515625 19.99609375 C3.4375 22.0625 3.4375 22.0625 2.4375 23.0625 C2.1555604 25.34934338 1.98972995 27.63613273 1.81640625 29.93359375 C1.4375 32.0625 1.4375 32.0625 -0.5625 34.0625 C-2.58203125 33.9375 -2.58203125 33.9375 -4.5625 33.0625 C-5.57421875 31.25 -5.57421875 31.25 -6.25 29.0625 C-6.99424903 26.31649382 -6.99424903 26.31649382 -8.5625 24.0625 C-9.69312924 15.4535659 -7.45096008 8.68643157 -3.5625 1.0625 C-2.5625 0.0625 -2.5625 0.0625 0 0 Z " fill="#040404" transform="translate(508.5625,250.9375)"/>
<path d="M0 0 C2.5625 0.1875 2.5625 0.1875 4.5625 2.1875 C4.76679067 4.65100513 4.84522334 6.97492484 4.8125 9.4375 C4.80718262 10.14608154 4.80186523 10.85466309 4.79638672 11.5847168 C4.48465198 29.30427204 4.48465198 29.30427204 0.5625 35.1875 C-2.0625 35.375 -2.0625 35.375 -4.4375 35.1875 C-5.78163413 32.49923174 -5.56989863 30.37514598 -5.5625 27.375 C-5.56507813 26.33730469 -5.56765625 25.29960937 -5.5703125 24.23046875 C-5.44736674 21.41356435 -4.99273251 18.94294491 -4.4375 16.1875 C-4.19086199 12.91269531 -3.9987783 9.64263982 -3.83203125 6.36328125 C-3.48199635 0.26784587 -3.48199635 0.26784587 0 0 Z " fill="#040303" transform="translate(457.4375,423.8125)"/>
<path d="M0 0 C1.65 0.33 3.3 0.66 5 1 C5.33 1.99 5.66 2.98 6 4 C7.65 3.67 9.3 3.34 11 3 C12.13314263 7.10482793 11.78328091 9.75950737 10.5625 13.8125 C10.13130859 15.27623047 10.13130859 15.27623047 9.69140625 16.76953125 C9.46324219 17.50558594 9.23507812 18.24164063 9 19 C8.09636719 18.91105469 7.19273437 18.82210937 6.26171875 18.73046875 C2.9358783 18.69018382 2.9358783 18.69018382 0.76953125 20.86328125 C0.12371094 21.67152344 -0.52210938 22.47976562 -1.1875 23.3125 C-1.84105469 24.11300781 -2.49460937 24.91351563 -3.16796875 25.73828125 C-3.77253906 26.48464844 -4.37710937 27.23101562 -5 28 C-5.98439523 29.01536497 -6.9780988 30.02239173 -8 31 C-7.41895245 26.46782913 -6.18586563 22.41814612 -4.69921875 18.125 C-3.92618293 15.77566208 -3.39374626 13.4412268 -3 11 C-4.32 10.34 -5.64 9.68 -7 9 C-6.01 9 -5.02 9 -4 9 C-3.71125 8.071875 -3.4225 7.14375 -3.125 6.1875 C-2 3 -2 3 0 0 Z " fill="#726463" transform="translate(263,85)"/>
<path d="M0 0 C2.5 0.125 2.5 0.125 3.5 1.125 C3.62742501 3.88686306 3.68521705 6.61263449 3.6875 9.375 C3.69974609 10.13941406 3.71199219 10.90382813 3.72460938 11.69140625 C3.73581682 16.01748182 3.3604662 19.14816704 1.5 23.125 C0.95119353 25.45361633 0.50499998 27.78593762 0.0625 30.13671875 C-0.5 32.125 -0.5 32.125 -2.5 34.125 C-6.03571429 33.58928571 -6.03571429 33.58928571 -7.5 32.125 C-8.12377334 26.07919681 -7.37787138 21.19590249 -5.23046875 15.5703125 C-4.05117159 11.6225049 -3.92821463 7.62847589 -3.7109375 3.53125 C-3.42256606 0.24167952 -3.3114735 0.16557367 0 0 Z " fill="#020202" transform="translate(479.5,444.875)"/>
<path d="M0 0 C1.4540625 0.0309375 1.4540625 0.0309375 2.9375 0.0625 C5.1685011 3.939764 5.32962032 7.33150037 5.59375 11.72265625 C5.80620471 14.32908259 5.80620471 14.32908259 7.9375 17.0625 C7.9375 18.3825 7.9375 19.7025 7.9375 21.0625 C23.1175 21.0625 38.2975 21.0625 53.9375 21.0625 C53.9375 21.3925 53.9375 21.7225 53.9375 22.0625 C36.1175 22.3925 18.2975 22.7225 -0.0625 23.0625 C-3.45666058 11.74863139 -3.45666058 11.74863139 -3.8125 6.5 C-3.88984375 5.48808594 -3.9671875 4.47617187 -4.046875 3.43359375 C-4.05203125 2.65113281 -4.0571875 1.86867188 -4.0625 1.0625 C-3.0625 0.0625 -3.0625 0.0625 0 0 Z " fill="#1F1F1F" transform="translate(134.0625,488.9375)"/>
<path d="M0 0 C0.66 0.33 1.32 0.66 2 1 C0.70179136 6.56375132 0.70179136 6.56375132 -2.3125 8.4375 C-3.199375 8.953125 -4.08625 9.46875 -5 10 C-6.34631825 10.98244845 -7.68441297 11.97676564 -9 13 C-8.67 12.01 -8.34 11.02 -8 10 C-12.46787558 11.63112918 -15.95860245 13.92559515 -19.81640625 16.66015625 C-21.92392254 17.9533192 -23.58548082 18.55651688 -26 19 C-26.8125 16.875 -26.8125 16.875 -27 14 C-21.94904723 5.521615 -9.77830784 -0.65188719 0 0 Z " fill="#050505" transform="translate(457,203)"/>
<path d="M0 0 C1.2065625 0.0309375 1.2065625 0.0309375 2.4375 0.0625 C3.1875 2.25 3.1875 2.25 3.4375 5.0625 C1.875 7.25 1.875 7.25 -0.5625 10.0625 C-5.14279862 16.54884049 -5.14279862 16.54884049 -7.1875 24.0625 C-7.5625 27.0625 -7.5625 27.0625 -9.375 28.625 C-12.14106025 29.17821205 -13.15194336 28.39159098 -15.5625 27.0625 C-15.26390058 19.5377947 -13.34343732 15.17658428 -9.0625 9.0625 C-8.55074219 8.30066406 -8.03898437 7.53882813 -7.51171875 6.75390625 C-2.99832436 0.07312986 -2.99832436 0.07312986 0 0 Z " fill="#070606" transform="translate(399.5625,163.9375)"/>
<path d="M0 0 C0.75 1.75 0.75 1.75 1 4 C-1.11648137 6.5700131 -3.22154417 8.14769611 -6 10 C-5.67 10.66 -5.34 11.32 -5 12 C-6.98 12 -8.96 12 -11 12 C-12.2039337 15.75399798 -12.09877617 19.33217412 -12.0625 23.25 C-12.05347656 24.51328125 -12.04445313 25.7765625 -12.03515625 27.078125 C-12.02355469 28.04234375 -12.01195312 29.0065625 -12 30 C-16.591665 28.32603695 -19.37196582 26.20616974 -23 23 C-22.360625 22.855625 -21.72125 22.71125 -21.0625 22.5625 C-19.02454854 22.18992819 -19.02454854 22.18992819 -18 21 C-17.773125 19.700625 -17.54625 18.40125 -17.3125 17.0625 C-16.10734635 11.45044121 -13.69434628 6.41153315 -10 2 C-6.5209336 0.2389246 -3.88544531 -0.22202545 0 0 Z " fill="#6F6160" transform="translate(409,170)"/>
<path d="M0 0 C2.5 0.125 2.5 0.125 3.5 1.125 C4.89886602 9.41195315 2.23900123 17.30947328 -2.5 24.125 C-5.08203125 25.12109375 -5.08203125 25.12109375 -7.5 25.125 C-8.16 24.465 -8.82 23.805 -9.5 23.125 C-9.13417479 17.88586034 -7.70253201 13.1727497 -6 8.25 C-5.77441406 7.57453125 -5.54882812 6.8990625 -5.31640625 6.203125 C-3.26675965 0.16333798 -3.26675965 0.16333798 0 0 Z " fill="#030202" transform="translate(447.5,408.875)"/>
<path d="M0 0 C1.32 1.32 2.64 2.64 4 4 C3.67 4.886875 3.34 5.77375 3 6.6875 C1.18128099 12.96917488 0.93224905 20.79674716 3 27 C-1.83465866 25.53495192 -5.91449576 23.01713848 -9 19 C-10.04267946 15.76003559 -10.01592243 13.24530777 -9 10 C-7.40945337 7.87243892 -5.74648211 6.22848476 -3.7265625 4.5078125 C-1.75929802 2.92260425 -1.75929802 2.92260425 0 0 Z " fill="#776A69" transform="translate(482,244)"/>
<path d="M0 0 C0.66 0 1.32 0 2 0 C2.09865159 8.86454993 0.75713841 14.26982434 -4.41015625 21.4765625 C-6.67154166 25.06588677 -6.92095576 27.81065545 -7 32 C-11.875 28.375 -11.875 28.375 -13 25 C-12.34 24.34 -11.68 23.68 -11 23 C-10.55279728 20.80149372 -10.1659385 18.59051379 -9.8125 16.375 C-8.4502907 9.50748886 -6.18532375 5.61360857 -1 1 C-0.67 0.67 -0.34 0.34 0 0 Z " fill="#716362" transform="translate(392,158)"/>
<path d="M0 0 C1.2065625 0.0309375 1.2065625 0.0309375 2.4375 0.0625 C5.90848716 7.35685881 9.4375 14.8775299 9.4375 23.0625 C6.7975 23.0625 4.1575 23.0625 1.4375 23.0625 C0.59333837 20.52398538 -0.23797299 17.98239146 -1.0625 15.4375 C-1.30097656 14.72464844 -1.53945313 14.01179688 -1.78515625 13.27734375 C-3.1295217 9.09060563 -3.94638928 5.51835769 -3.5625 1.0625 C-2.5625 0.0625 -2.5625 0.0625 0 0 Z " fill="#060606" transform="translate(62.5625,488.9375)"/>
<path d="M0 0 C3.25 0.5625 3.25 0.5625 4.6875 2.13671875 C8.74497013 8.47651583 10.55363942 13.97151454 10.25 21.5625 C7.61 21.5625 4.97 21.5625 2.25 21.5625 C1.87875 19.7990625 1.87875 19.7990625 1.5 18 C0.75439531 14.94194019 -0.21584062 12.54612893 -1.875 9.875 C-3.70899185 6.63494773 -4.2824122 5.18290297 -3.75 1.5625 C-2.75 0.5625 -2.75 0.5625 0 0 Z " fill="#080808" transform="translate(98.75,490.4375)"/>
<path d="M0 0 C2.0625 0.25 2.0625 0.25 4 1 C5.95066391 4.90132782 5.48445406 9.70084061 5.6875 14 C5.74744141 15.02351563 5.80738281 16.04703125 5.86914062 17.1015625 C5.91619141 18.07867187 5.96324219 19.05578125 6.01171875 20.0625 C6.05772217 20.96097656 6.10372559 21.85945313 6.15112305 22.78515625 C6 25 6 25 4 27 C2 26.9375 2 26.9375 0 26 C-2.63901408 21.35384845 -2.29686642 16.49514529 -2.25 11.3125 C-2.25773438 10.44560547 -2.26546875 9.57871094 -2.2734375 8.68554688 C-2.27085937 7.85732422 -2.26828125 7.02910156 -2.265625 6.17578125 C-2.26336914 5.42208252 -2.26111328 4.66838379 -2.25878906 3.8918457 C-2 2 -2 2 0 0 Z " fill="#060606" transform="translate(238,106)"/>
<path d="M0 0 C5.02199904 0.74399986 7.28961992 3.63548354 10.375 7.5 C12.7029948 11.25483033 13.9920946 14.05691886 13.375 18.5 C11.375 20.5 11.375 20.5 9 20.625 C5.39857607 19.0815326 4.99563183 17.03852657 3.48828125 13.55859375 C2.2816057 11.32730247 1.15344433 10.29939245 -0.875 8.8125 C-3.625 6.5 -3.625 6.5 -4.0625 3.75 C-3.44145482 0.55605336 -3.25059329 0.61916063 0 0 Z " fill="#070707" transform="translate(169.625,487.5)"/>
<path d="M0 0 C0.66 0.33 1.32 0.66 2 1 C2 3.64 2 6.28 2 9 C3.65 8.67 5.3 8.34 7 8 C7.33 9.65 7.66 11.3 8 13 C6.35 13 4.7 13 3 13 C-0.37964731 19.79360575 -2.34886481 26.60741743 -4 34 C-6.01953125 32.13671875 -6.01953125 32.13671875 -8 30 C-7.6875 27.8125 -7.6875 27.8125 -7 26 C-7.33 25.67 -7.66 25.34 -8 25 C-8.35822874 19.62656891 -8.41582628 16.39177664 -5 12 C-4.278125 11.360625 -3.55625 10.72125 -2.8125 10.0625 C-0.68298007 8.06486575 -0.68298007 8.06486575 -0.8125 4.875 C-0.874375 3.92625 -0.93625 2.9775 -1 2 C-0.67 1.34 -0.34 0.68 0 0 Z " fill="#716362" transform="translate(458,213)"/>
<path d="M0 0 C0.33 0 0.66 0 1 0 C1.33 7.59 1.66 15.18 2 23 C-1.171738 24.585869 -4.63513822 24.37866445 -8.125 24.5625 C-8.87910156 24.60568359 -9.63320313 24.64886719 -10.41015625 24.69335938 C-12.27321888 24.7994832 -14.13658524 24.90025001 -16 25 C-15.88601335 23.37419034 -15.75844341 21.74932843 -15.625 20.125 C-15.55539062 19.22007812 -15.48578125 18.31515625 -15.4140625 17.3828125 C-15 15 -15 15 -13 13 C-12.34 14.65 -11.68 16.3 -11 18 C-8.66705225 18.04241723 -6.33297433 18.04092937 -4 18 C-1.61026951 15.61026951 -2.53499541 9.55501122 -2.37890625 6.3203125 C-2 3 -2 3 0 0 Z " fill="#706362" transform="translate(284,112)"/>
<path d="M0 0 C3.0625 0.1875 3.0625 0.1875 5.0625 2.1875 C5.44140625 4.71875 5.44140625 4.71875 5.625 7.6875 C5.79769346 11.58348635 5.79769346 11.58348635 7.0625 15.1875 C7.7225 15.5175 8.3825 15.8475 9.0625 16.1875 C7.9375 17.6875 7.9375 17.6875 6.0625 19.1875 C3 19.5 3 19.5 0.0625 19.1875 C-2.40625142 16.71874858 -2.48211856 15.27898319 -3.0625 11.875 C-3.23007813 10.93011719 -3.39765625 9.98523438 -3.5703125 9.01171875 C-3.91619344 6.35137917 -4.07969519 3.86550938 -3.9375 1.1875 C-2.9375 0.1875 -2.9375 0.1875 0 0 Z " fill="#070606" transform="translate(235.9375,484.8125)"/>
<path d="M0 0 C-0.33 1.65 -0.66 3.3 -1 5 C-1.99 5.33 -2.98 5.66 -4 6 C-3.67 6.99 -3.34 7.98 -3 9 C-4.1446875 9.8353125 -4.1446875 9.8353125 -5.3125 10.6875 C-7.96140888 12.96679369 -9.38288822 14.93599872 -11 18 C-11.99 17.67 -12.98 17.34 -14 17 C-14.36076925 11.92918782 -14.5619882 8.12397641 -12.25 3.5 C-8.15235702 -1.05293664 -5.96850273 -1.35647789 0 0 Z " fill="#716463" transform="translate(434,190)"/>
<path d="M0 0 C1.66611905 -0.042721 3.33382885 -0.04063832 5 0 C6 1 6 1 6.1875 4 C6.11267776 9.16273424 5.75145487 15.24854513 2 19 C-2.55555556 18.44444444 -2.55555556 18.44444444 -4 17 C-4.68330794 10.57690535 -2.61688508 5.80621378 0 0 Z " fill="#030202" transform="translate(436,402)"/>
<path d="M0 0 C0.66 0 1.32 0 2 0 C1.70703125 1.953125 1.4140625 3.90625 1.12109375 5.859375 C0.99119682 8.15561742 1.44199777 9.78048366 2 12 C2.02865156 14.82013216 1.93544841 17.62298087 1.83984375 20.44140625 C1.80053666 23.24424385 1.80053666 23.24424385 4 26 C2.02 26.33 0.04 26.66 -2 27 C-2.5156159 24.9375364 -3.0155553 22.90926073 -3.375 20.8125 C-3.684375 19.9153125 -3.684375 19.9153125 -4 19 C-4.99 18.67 -5.98 18.34 -7 18 C-6.68933594 17.443125 -6.37867188 16.88625 -6.05859375 16.3125 C-4.59131994 13.10723766 -4.20394681 9.90086512 -3.66015625 6.4375 C-2.9157877 3.68906226 -1.9252236 2.08445262 0 0 Z " fill="#6F6160" transform="translate(412,187)"/>
<path d="M0 0 C3.69230769 0.69230769 3.69230769 0.69230769 5 2 C5.1875 4.9375 5.1875 4.9375 5 8 C4.34 8.66 3.68 9.32 3 10 C4.32 10.66 5.64 11.32 7 12 C7.25 14.3125 7.25 14.3125 7 17 C4.95575462 18.97610386 3.8823175 20 1 20 C0.67 20.66 0.34 21.32 0 22 C-1.58937556 20.41062444 -1.12981143 18.76100154 -1.1328125 16.5625 C-1.13410156 15.66789062 -1.13539063 14.77328125 -1.13671875 13.8515625 C-1.13091797 12.44003906 -1.13091797 12.44003906 -1.125 11 C-1.12886719 10.05898437 -1.13273437 9.11796875 -1.13671875 8.1484375 C-1.13542969 7.25382812 -1.13414062 6.35921875 -1.1328125 5.4375 C-1.13112061 4.19806641 -1.13112061 4.19806641 -1.12939453 2.93359375 C-1 1 -1 1 0 0 Z " fill="#B0AFAF" transform="translate(344,76)"/>
<path d="M0 0 C1 2 1 2 -0.21484375 5.703125 C-1.06675719 7.98424851 -1.93993973 10.25630759 -2.81835938 12.52734375 C-4.43073589 16.85470553 -5.36669259 20.30034805 -5 25 C-12.42857143 25.28571429 -12.42857143 25.28571429 -16 23 C-14 20 -14 20 -11 19 C-9.74011146 16.44922374 -9.74011146 16.44922374 -8.6875 13.375 C-6.52438934 7.84851606 -4.12923093 4.22525956 0 0 Z " fill="#6B5E5D" transform="translate(267,112)"/>
<path d="M0 0 C2.31 0.66 4.62 1.32 7 2 C7.4375 4.0625 7.4375 4.0625 7 7 C4.12233748 10.6048138 0.82772638 13.44818241 -3 16 C-5.6875 15.625 -5.6875 15.625 -8 15 C-8.33 13.68 -8.66 12.36 -9 11 C-8.22269531 10.93941406 -7.44539063 10.87882813 -6.64453125 10.81640625 C-3.81257756 10.26532213 -3.81257756 10.26532213 -2.63671875 7.71484375 C-2.32347656 6.79832031 -2.01023437 5.88179687 -1.6875 4.9375 C-1.36136719 4.01839844 -1.03523438 3.09929687 -0.69921875 2.15234375 C-0.46847656 1.44207031 -0.23773438 0.73179687 0 0 Z " fill="#AEADAD" transform="translate(342,129)"/>
<path d="M0 0 C4.29 0 8.58 0 13 0 C13.99 3.96 14.98 7.92 16 12 C13.36 12 10.72 12 8 12 C7.4121875 10.700625 7.4121875 10.700625 6.8125 9.375 C4.86106043 5.74128495 2.71596841 3.08299117 0 0 Z " fill="#F4F4F4" transform="translate(259,500)"/>
<path d="M0 0 C0.33 0 0.66 0 1 0 C1.04898437 0.77085937 1.09796875 1.54171875 1.1484375 2.3359375 C1.22320312 3.33882813 1.29796875 4.34171875 1.375 5.375 C1.44460938 6.37273437 1.51421875 7.37046875 1.5859375 8.3984375 C1.76363964 11.15508879 1.76363964 11.15508879 4 13 C4.71927295 15.31765729 5.3909893 17.65095874 6 20 C7.32 19.67 8.64 19.34 10 19 C10.04898437 18.36191406 10.09796875 17.72382813 10.1484375 17.06640625 C10.22320312 16.24011719 10.29796875 15.41382813 10.375 14.5625 C10.44460938 13.73878906 10.51421875 12.91507812 10.5859375 12.06640625 C10.72257812 11.38449219 10.85921875 10.70257813 11 10 C11.66 9.67 12.32 9.34 13 9 C13 14.94 13 20.88 13 27 C3.66666667 21.66666667 3.66666667 21.66666667 0 18 C-0.3125 15.25 -0.3125 15.25 0 13 C-0.33 12.67 -0.66 12.34 -1 12 C-1.09851171 10.16884117 -1.12972629 8.33380067 -1.125 6.5 C-1.12757813 5.4996875 -1.13015625 4.499375 -1.1328125 3.46875 C-1 1 -1 1 0 0 Z " fill="#685A5A" transform="translate(499,264)"/>
<path d="M0 0 C1.65 0.33 3.3 0.66 5 1 C6.35606055 5.44170732 5.59120114 7.7056172 3.5625 11.8125 C3.08941406 12.78832031 2.61632812 13.76414062 2.12890625 14.76953125 C1.75636719 15.50558594 1.38382812 16.24164063 1 17 C0.71125 16.38125 0.4225 15.7625 0.125 15.125 C-1.63411124 11.80223432 -3.68335854 10.54776601 -7 9 C-6.01 9 -5.02 9 -4 9 C-3.71125 8.071875 -3.4225 7.14375 -3.125 6.1875 C-2 3 -2 3 0 0 Z " fill="#7A6D6C" transform="translate(263,85)"/>
<path d="M0 0 C0.67578125 1.7421875 0.67578125 1.7421875 1 4 C-0.14453125 6.0703125 -0.14453125 6.0703125 -1.8125 8.125 C-2.35519531 8.80820313 -2.89789063 9.49140625 -3.45703125 10.1953125 C-5 12 -5 12 -7 14 C-7.33 13.01 -7.66 12.02 -8 11 C-9.65 11 -11.3 11 -13 11 C-6.67741935 -0.74193548 -6.67741935 -0.74193548 0 0 Z " fill="#756766" transform="translate(432,176)"/>
<path d="M0 0 C0 1.65 0 3.3 0 5 C1.32 5.33 2.64 5.66 4 6 C0.66666667 9.33333333 -2.66666667 12.66666667 -6 16 C-6.18451025 5.44191344 -6.18451025 5.44191344 -5 1 C-6.65 1 -8.3 1 -10 1 C-10 0.67 -10 0.34 -10 0 C-6.30458414 -0.95024979 -3.69541586 -0.95024979 0 0 Z " fill="#766968" transform="translate(383,148)"/>
<path d="M0 0 C0.33 0 0.66 0 1 0 C1.33 6.6 1.66 13.2 2 20 C2.66 20.33 3.32 20.66 4 21 C6.20731737 24.31097606 6.17754126 27.09409237 6 31 C4.125 32.0625 4.125 32.0625 2 33 C1.34 32.67 0.68 32.34 0 32 C0 21.44 0 10.88 0 0 Z " fill="#8E8D8D" transform="translate(342,77)"/>
<path d="M0 0 C4.56521739 4.13043478 4.56521739 4.13043478 6 7 C0.06 7 -5.88 7 -12 7 C-12 5.35 -12 3.7 -12 2 C-10.6078125 2.061875 -10.6078125 2.061875 -9.1875 2.125 C-5.35552496 1.97472647 -3.80827584 0 0 0 Z " fill="#F1F1F1" transform="translate(253,505)"/>
<path d="M0 0 C1.67542976 0.28604898 3.34385343 0.61781233 5 1 C4.56179109 5.55737263 4.14958831 8.57653445 1 12 C-1.475 11.01 -1.475 11.01 -4 10 C-4 10.66 -4 11.32 -4 12 C-4.66 11.67 -5.32 11.34 -6 11 C-5.18993474 9.35296694 -4.3768779 7.70740494 -3.5625 6.0625 C-3.11003906 5.14597656 -2.65757812 4.22945312 -2.19140625 3.28515625 C-1 1 -1 1 0 0 Z " fill="#766867" transform="translate(476,218)"/>
<path d="M0 0 C2.625 0.9375 2.625 0.9375 5 2 C1.99633316 11.77789419 1.99633316 11.77789419 -1 16 C-1.33 16 -1.66 16 -2 16 C-2 11.05 -2 6.1 -2 1 C-1.34 0.67 -0.68 0.34 0 0 Z " fill="#746665" transform="translate(294,112)"/>
<path d="M0 0 C0.66 0 1.32 0 2 0 C2.02578125 0.84304687 2.0515625 1.68609375 2.078125 2.5546875 C2.13484375 3.65039062 2.1915625 4.74609375 2.25 5.875 C2.29640625 6.96554688 2.3428125 8.05609375 2.390625 9.1796875 C2.68846128 12.1332065 2.68846128 12.1332065 5.046875 13.3828125 C5.69140625 13.58648437 6.3359375 13.79015625 7 14 C7 16.31 7 18.62 7 21 C2.78185183 17.0299782 -0.61227103 12.69159716 -4 8 C-3.34515625 7.56042969 -2.6903125 7.12085938 -2.015625 6.66796875 C-1.35046875 6.11753906 -0.6853125 5.56710938 0 5 C0.33425735 2.37374861 0.33425735 2.37374861 0 0 Z " fill="#6C5E5D" transform="translate(368,157)"/>
<path d="M0 0 C1.74627478 2.61941217 2.38722388 4.03824877 3 7 C2.01 7.495 2.01 7.495 1 8 C0.67 7.34 0.34 6.68 0 6 C-2.37233611 6.03780298 -2.37233611 6.03780298 -5 7 C-7.33414647 9.95849927 -7.33414647 9.95849927 -9 13 C-10 10 -10 10 -9.5625 7.625 C-7.26654501 3.76779562 -3.87200244 2.11609436 0 0 Z " fill="#6C5F5E" transform="translate(500,252)"/>
<path d="M0 0 C0.33 0 0.66 0 1 0 C1 5.94 1 11.88 1 18 C-3 16 -3 16 -3.875 14 C-3.91625 13.34 -3.9575 12.68 -4 12 C-3.34 11.34 -2.68 10.68 -2 10 C-1.5769311 7.83000806 -1.5769311 7.83000806 -1.4375 5.4375 C-1.09722222 1.09722222 -1.09722222 1.09722222 0 0 Z " fill="#F1F1F1" transform="translate(511,273)"/>
<path d="M0 0 C0.763125 0.20625 1.52625 0.4125 2.3125 0.625 C1.96200425 3.86708567 1.75028819 5.24027704 -0.75 7.4375 C-1.389375 7.829375 -2.02875 8.22125 -2.6875 8.625 C-3.0175 7.635 -3.3475 6.645 -3.6875 5.625 C-5.68766466 4.41617904 -5.68766466 4.41617904 -7.6875 3.625 C-7.0275 3.625 -6.3675 3.625 -5.6875 3.625 C-5.6875 2.965 -5.6875 2.305 -5.6875 1.625 C-2.6875 -0.375 -2.6875 -0.375 0 0 Z " fill="#726463" transform="translate(418.6875,175.375)"/>
<path d="M0 0 C0.33 0 0.66 0 1 0 C1.71925996 7.48030361 -0.5117559 13.39347708 -4 20 C-4.66 20.33 -5.32 20.66 -6 21 C-4.29977612 13.87352969 -2.42080258 6.9165788 0 0 Z " fill="#6E5858" transform="translate(93,256)"/>
<path d="M0 0 C0.33 0.99 0.66 1.98 1 3 C-0.3984375 5.69921875 -0.3984375 5.69921875 -2.375 8.6875 C-3.02210938 9.68136719 -3.66921875 10.67523438 -4.3359375 11.69921875 C-5.15964844 12.83810547 -5.15964844 12.83810547 -6 14 C-6.33 14 -6.66 14 -7 14 C-7.36585366 7.65853659 -7.36585366 7.65853659 -5.75 4.75 C-3.94805346 2.94805346 -2.096629 1.44595103 0 0 Z " fill="#EFEEEE" transform="translate(419,183)"/>
<path d="M0 0 C0.33 0 0.66 0 1 0 C1.08078641 2.12438339 1.13909141 4.2496323 1.1875 6.375 C1.22230469 7.55835937 1.25710938 8.74171875 1.29296875 9.9609375 C1.19628906 10.96382812 1.09960938 11.96671875 1 13 C0.01 13.66 -0.98 14.32 -2 15 C-2.05406122 13.06280622 -2.09282025 11.12518079 -2.125 9.1875 C-2.14820313 8.10855469 -2.17140625 7.02960938 -2.1953125 5.91796875 C-2 3 -2 3 0 0 Z " fill="#6D605F" transform="translate(284,112)"/>
<path d="M0 0 C0.33 0 0.66 0 1 0 C1.33 3.3 1.66 6.6 2 10 C0.35 10 -1.3 10 -3 10 C-3.23226952 6.59338044 -3.35720302 4.59016151 -1.5625 1.625 C-0.7890625 0.820625 -0.7890625 0.820625 0 0 Z " fill="#F9F9F9" transform="translate(284,125)"/>
<path d="M0 0 C1 2 1 2 -0.21484375 5.6953125 C-0.78133585 7.17485658 -1.35591889 8.65132181 -1.9375 10.125 C-2.22818359 10.87910156 -2.51886719 11.63320312 -2.81835938 12.41015625 C-3.53874998 14.27608602 -4.26850404 16.1383958 -5 18 C-5.33 18 -5.66 18 -6 18 C-6.62250286 12.08622284 -4.57264976 7.22041339 -2 2 C-1.34 1.34 -0.68 0.68 0 0 Z " fill="#DAD8D8" transform="translate(267,112)"/>
<path d="M0 0 C0.33 0 0.66 0 1 0 C1.28580155 4.03932853 1.45551292 7.97005043 1 12 C-1.5 14.75 -1.5 14.75 -4 16 C-3.27275406 10.47293087 -1.66554027 5.30039859 0 0 Z " fill="#DBDBDB" transform="translate(511,252)"/>
<path d="M0 0 C0.66 0.66 1.32 1.32 2 2 C-1.85421412 10.6309795 -1.85421412 10.6309795 -6 13 C-5.51675181 7.84535266 -2.81389239 4.18449681 0 0 Z " fill="#E8E6E6" transform="translate(476,234)"/>
<path d="M0 0 C0.66 0 1.32 0 2 0 C2.66 1.65 3.32 3.3 4 5 C2.02 7.31 0.04 9.62 -2 12 C-3.40907283 9.18185434 -2.50872691 7.82722796 -1.5625 4.875 C-1.27503906 3.96492187 -0.98757813 3.05484375 -0.69140625 2.1171875 C-0.46324219 1.41851562 -0.23507812 0.71984375 0 0 Z " fill="#6F6362" transform="translate(466,226)"/>
<path d="M0 0 C0.99 0.33 1.98 0.66 3 1 C-0.33333333 4.33333333 -3.66666667 7.66666667 -7 11 C-7.4375 8.875 -7.4375 8.875 -7 6 C-4.95580695 3.60411783 -2.74197701 1.56181132 0 0 Z " fill="#665958" transform="translate(384,153)"/>
<path d="M0 0 C1.32 0 2.64 0 4 0 C3.34 1.98 2.68 3.96 2 6 C0.68 6 -0.64 6 -2 6 C-2 3 -2 3 0 0 Z " fill="#E6E4E4" transform="translate(432,206)"/>
<path d="M0 0 C1.98 0 3.96 0 6 0 C6.33 0.66 6.66 1.32 7 2 C6.67 2.66 6.34 3.32 6 4 C3.69 4 1.38 4 -1 4 C-0.67 2.68 -0.34 1.36 0 0 Z " fill="#6D605F" transform="translate(279,102)"/>
<path d="M0 0 C2.31 0.66 4.62 1.32 7 2 C6.67 2.99 6.34 3.98 6 5 C-0.93 4.505 -0.93 4.505 -8 4 C-8 3.67 -8 3.34 -8 3 C-6.865625 2.87625 -5.73125 2.7525 -4.5625 2.625 C-3.386875 2.41875 -2.21125 2.2125 -1 2 C-0.67 1.34 -0.34 0.68 0 0 Z " fill="#837979" transform="translate(234,502)"/>
<path d="M0 0 C0.66 0 1.32 0 2 0 C2.25 7.625 2.25 7.625 0 11 C-0.99 10.67 -1.98 10.34 -3 10 C-3.33 9.01 -3.66 8.02 -4 7 C-2.68 6.34 -1.36 5.68 0 5 C0 3.35 0 1.7 0 0 Z " fill="#C7C3C3" transform="translate(368,157)"/>
<path d="M0 0 C2.0625 0.25 2.0625 0.25 4 1 C4.33 1.66 4.66 2.32 5 3 C4.2575 3.268125 3.515 3.53625 2.75 3.8125 C0.13363446 4.94229421 -1.80187111 6.20893202 -4 8 C-2.25 2.25 -2.25 2.25 0 0 Z " fill="#716363" transform="translate(479,234)"/>
<path d="M0 0 C0 1.65 0 3.3 0 5 C-2.64 5.33 -5.28 5.66 -8 6 C-6.24081631 1.94034532 -4.71412298 0 0 0 Z " fill="#685A59" transform="translate(502,242)"/>
<path d="M0 0 C2.97 0.495 2.97 0.495 6 1 C5.071875 2.1446875 5.071875 2.1446875 4.125 3.3125 C1.94402948 5.99625809 1.94402948 5.99625809 0 9 C0 8.34 0 7.68 0 7 C-0.66 6.67 -1.32 6.34 -2 6 C-1.34 4.02 -0.68 2.04 0 0 Z " fill="#443C3C" transform="translate(429,211)"/>
<path d="M0 0 C0.33 0 0.66 0 1 0 C1.66 3.96 2.32 7.92 3 12 C0.525 11.01 0.525 11.01 -2 10 C-1.34 6.7 -0.68 3.4 0 0 Z " fill="#928989" transform="translate(461,243)"/>
<path d="M0 0 C3.35620271 1.38877354 5.07298728 2.91677965 7 6 C7 6.66 7 7.32 7 8 C4.625 7.375 4.625 7.375 2 6 C0.6875 2.875 0.6875 2.875 0 0 Z " fill="#6C5C5B" transform="translate(418,221)"/>
<path d="M0 0 C0.99 0.33 1.98 0.66 3 1 C1.35 3.64 -0.3 6.28 -2 9 C-3.21185923 5.36442231 -2.59260392 4.36216382 -1 1 C-0.67 0.67 -0.34 0.34 0 0 Z " fill="#665958" transform="translate(493,256)"/>
<path d="M0 0 C0.33 0 0.66 0 1 0 C1 2.31 1 4.62 1 7 C-0.98 5.68 -2.96 4.36 -5 3 C-4.360625 2.690625 -3.72125 2.38125 -3.0625 2.0625 C-1.06389179 1.1654837 -1.06389179 1.1654837 0 0 Z " fill="#ECECEC" transform="translate(490,269)"/>
<path d="M0 0 C1.9451 2.91765 2.45276317 4.62537285 3 8 C0.5 6.1875 0.5 6.1875 -2 4 C-2 3.01 -2 2.02 -2 1 C-1.34 0.67 -0.68 0.34 0 0 Z " fill="#E8E6E6" transform="translate(439,227)"/>
<path d="M0 0 C0.99 0.33 1.98 0.66 3 1 C3 2.65 3 4.3 3 6 C2.01 6.33 1.02 6.66 0 7 C0 4.69 0 2.38 0 0 Z " fill="#AFADAD" transform="translate(346,112)"/>
<path d="M0 0 C0.6875 1.6875 0.6875 1.6875 1 4 C-0.4375 6.75 -0.4375 6.75 -2 9 C-2.6875 7.3125 -2.6875 7.3125 -3 5 C-1.5625 2.25 -1.5625 2.25 0 0 Z " fill="#664D4D" transform="translate(48,395)"/>
<path d="M0 0 C0.33 0.99 0.66 1.98 1 3 C-2.3 2.67 -5.6 2.34 -9 2 C-9 1.67 -9 1.34 -9 1 C-5.846632 0.29925156 -3.27275026 0 0 0 Z " fill="#4F3C3C" transform="translate(200,129)"/>
</svg>
